<?xml version="1.0" standalone="no"?><!DOCTYPE svg PUBLIC "-//W3C//DTD SVG 1.1//EN" "http://www.w3.org/Graphics/SVG/1.1/DTD/svg11.dtd"><svg t="1582984544885" class="icon" viewBox="0 0 1024 1024" version="1.1" xmlns="http://www.w3.org/2000/svg" p-id="2293" xmlns:xlink="http://www.w3.org/1999/xlink" width="200" height="200"><defs><style type="text/css"></style></defs><path d="M512 64a448 448 0 1 1 0 896A448 448 0 0 1 512 64zM408.576 363.136a32 32 0 1 0-45.312 45.248l103.808 103.744-103.808 103.744a32 32 0 1 0 45.312 45.248l103.744-103.68 103.744 103.68a32 32 0 1 0 45.248-45.248l-103.744-103.68 103.744-103.808a32 32 0 0 0-45.248-45.248L512.32 466.88z" fill="#B8B8B8" p-id="2294"></path></svg>