<?xml version="1.0" standalone="no"?><!DOCTYPE svg PUBLIC "-//W3C//DTD SVG 1.1//EN" "http://www.w3.org/Graphics/SVG/1.1/DTD/svg11.dtd"><svg t="1583247218283" class="icon" viewBox="0 0 1024 1024" version="1.1" xmlns="http://www.w3.org/2000/svg" p-id="10022" xmlns:xlink="http://www.w3.org/1999/xlink" width="200" height="200"><defs><style type="text/css"></style></defs><path d="M512 39.385C250.092 39.385 39.385 250.092 39.385 512S250.092 984.615 512 984.615 984.615 773.908 984.615 512 773.908 39.385 512 39.385z m263.877 354.461l-301.292 305.23c-11.816 11.816-31.508 11.816-43.323 0L265.846 531.693c-11.815-11.815-11.815-31.507 0-43.323l43.323-43.323c11.816-11.815 31.508-11.815 43.323 0l86.646 88.616c7.877 7.876 21.662 7.876 29.539 0L689.23 305.23c11.815-11.816 31.507-11.816 43.323 0l43.323 43.323c13.785 11.815 13.785 31.508 0 45.292z" p-id="10023"></path></svg>