<?xml version="1.0" standalone="no"?><!DOCTYPE svg PUBLIC "-//W3C//DTD SVG 1.1//EN" "http://www.w3.org/Graphics/SVG/1.1/DTD/svg11.dtd"><svg t="1581859318085" class="icon" viewBox="0 0 1024 1024" version="1.1" xmlns="http://www.w3.org/2000/svg" p-id="1970" xmlns:xlink="http://www.w3.org/1999/xlink" width="200" height="200"><defs><style type="text/css"></style></defs><path d="M511.36 64.64c-246.848 0-446.912 201.6-446.912 450.432 0 248.704 200.064 450.368 446.912 450.368h0.512c-246.528-0.192-446.4-201.728-446.4-450.368 0-248.704 199.872-450.112 446.4-450.432H511.36z m1.088 0h-0.576c246.592 0.32 446.464 201.856 446.464 450.432 0 248.512-199.872 450.176-446.464 450.368h0.576c246.848 0 446.912-201.6 446.912-450.368S759.296 64.64 512.448 64.64z" fill="#1296db" p-id="1971"></path><path d="M958.336 515.072c0-248.576-199.872-450.112-446.464-450.432-246.528 0.32-446.4 201.856-446.4 450.432 0 248.512 199.872 450.048 446.4 450.368 246.592-0.192 446.464-201.728 446.464-450.368zM679.04 591.936a23.424 23.424 0 0 1-33.344 0L535.936 481.28v264.96c0 13.12-10.496 23.68-23.488 23.68a23.552 23.552 0 0 1-23.552-23.68v-264.96L379.072 592a23.424 23.424 0 0 1-33.28 0 23.808 23.808 0 0 1 0-33.536l141.44-142.592a35.392 35.392 0 0 1 50.24 0l141.568 142.592a23.808 23.808 0 0 1 0 33.536z m21.632-211.392h-376.32a23.552 23.552 0 0 1-23.552-23.68c0-13.184 10.496-23.744 23.488-23.744h376.32c13.056 0 23.552 10.56 23.552 23.68s-10.496 23.68-23.488 23.68z" fill="#1296db" p-id="1972"></path></svg>