<?xml version="1.0" standalone="no"?><!DOCTYPE svg PUBLIC "-//W3C//DTD SVG 1.1//EN" "http://www.w3.org/Graphics/SVG/1.1/DTD/svg11.dtd"><svg t="1584420479010" class="icon" viewBox="0 0 1024 1024" version="1.1" xmlns="http://www.w3.org/2000/svg" p-id="14797" xmlns:xlink="http://www.w3.org/1999/xlink" width="200" height="200"><defs><style type="text/css"></style></defs><path d="M159.23599958 275.21000042c0 106.92000014 157.84200042 196.02000042 352.56600028 194.75999944s352.56600028-87.84000028 352.56600028-194.75999944c0-68.72399986-67.44599958-133.63200014-176.92200028-169.27200084-109.44000014-35.63999972-243.08999958-34.37999972-353.82600028 0-106.92000014 35.63999972-175.644 99.26999972-174.384 169.27200084z" fill="#DB1919" p-id="14798"></path><path d="M575.45000014 307.03399958c0 68.74200014 57.27600014 126 126 126 68.74200014 0 126-57.25799986 126-126 0-68.72399986-57.25799986-126-126-126-70.00200014-1.26-127.26 55.99799986-126 126z" fill="#F4AE51" p-id="14799"></path><path d="M599.62399986 300.67999972c0 58.53600014 48.36599972 106.92000014 106.92000014 106.92000014s106.92000014-48.384 106.92000014-106.92000014-48.36599972-106.92000014-106.92000014-106.92000014-105.64199986 47.08800042-106.92000014 106.92000014z" fill="#F4E576" p-id="14800"></path><path d="M752.37200042 308.31199986h-33.10200042v-20.35800014h33.10200042c5.07599958 0 11.44799972-3.83399986 10.16999944-10.18799972s-5.09399986-10.18799972-10.16999944-10.18799972h-20.37600042l11.466-19.07999986c2.53800028-5.09399986 1.26-11.466-3.81599958-14.00400028a13.53599986 13.53599986 0 0 0-15.28200056 2.53800028l-19.07999986 29.28599986-19.09800014-29.28599986c-2.55599958-5.09399986-8.91000042-6.35399986-15.28199958-2.53800028-5.09399986 2.53800028-6.35399986 8.91000042-3.81600056 14.00400028l11.4480007 19.07999986h-20.34000084c-5.11200014 0-11.466 3.81599958-10.206 10.18799972 0 5.09399986 5.09399986 10.18799972 10.1880007 10.18799972h33.10199944v20.35800014h-33.10199944c-5.09399986 0-11.44799972 3.81599958-10.1880007 10.18799972s5.09399986 10.17000042 10.1880007 10.17000042h33.10199944v17.81999986c0 5.09399986 5.07599958 10.18799972 10.17000042 10.18799972s11.466-3.81599958 10.18799972-10.18799972v-17.81999986h33.08400014c5.09399986 0 11.466-3.81599958 10.18799972-10.17000042 8.91000042-6.37200014 3.81599958-11.466-2.5379993-10.18799972zM197.43199986 305.77399958c0 68.72399986 57.27600014 126 126 126 68.74200014 0 126-57.27600014 126-126s-57.25799986-126-126-126-126 57.25799986-126 126z" fill="#F4AE51" p-id="14801"></path><path d="M210.13999958 300.67999972c0 38.178 20.37600042 73.80000042 53.46000056 91.62000028 34.37999972 19.11600042 75.11400028 19.11600042 106.92000014 0 34.37999972-19.07999986 53.45999958-53.44200028 53.45999958-91.62000028 0-58.55400042-48.36599972-106.92000014-106.92000014-106.92000014s-108.18000014 47.08800042-106.92000014 106.92000014z" fill="#F4E576" p-id="14802"></path><path d="M374.35400014 307.03399958h-33.10200042v-20.35799916h33.10200042c5.07599958 0 11.44799972-3.81599958 10.16999944-10.1880007s-5.09399986-10.17000042-10.16999944-10.16999944h-20.37600042l11.466-19.09800014c2.53800028-5.09399986 1.26-11.466-3.83399986-14.00400028a13.53599986 13.53599986 0 0 0-15.26400028 2.53800028l-19.07999986 29.28599986-19.09800014-29.28599986c-2.55599958-5.07599958-8.91000042-6.35399986-15.28199958-2.53800028-5.09399986 2.53800028-6.35399986 8.91000042-3.81599958 14.00400028l11.44799972 19.07999986h-20.35800014c-5.09399986 0-11.44799972 3.83399986-10.18799972 10.18799972 0 5.09399986 5.09399986 10.18799972 10.18799972 10.1880007h33.08400014v20.35799916h-33.08400014c-5.09399986 0-11.44799972 3.81599958-10.18799972 10.1880007s5.09399986 10.18799972 10.18799972 10.18799972h33.08400014v17.81999986c0 5.07599958 5.09399986 10.17000042 10.18799972 10.17000042s11.466-3.81599958 10.18799972-10.17000042v-17.81999986h33.08400014c5.09399986 0 7.65000042-2.55599958 10.1880007-5.09399986 2.53800028-2.55599958 2.53800028-7.63200014 0-10.18799972s2.53800028-5.09399986-2.53800028-5.09400084z" fill="#F4AE51" p-id="14803"></path><path d="M334.87999958 249.75800042a182.52000014 182.52000014 0 0 0 183.29400042 183.29399944 182.52000014 182.52000014 0 0 0 183.27600014-183.29399944 182.52000014 182.52000014 0 0 0-183.27600014-183.27600014c-100.548 1.26-182.01600014 82.72800014-183.27600014 183.27600014z" fill="#FFBC5A" p-id="14804"></path><path d="M361.60999986 243.40399958c0 53.45999958 28.00799958 104.36399958 75.096 131.09400084 47.10599972 26.73000028 104.38199986 28.00799958 150.192 0 47.10599972-26.73000028 75.096-77.63400028 75.096-131.09400084 0-53.45999958-27.99000028-104.38199986-75.096-131.09399986-47.08800042-26.73000028-104.36399958-28.00799958-150.192 0s-76.356 76.356-75.096 131.09399986z" fill="#FFF48D" p-id="14805"></path><path d="M571.63399958 270.13399986h-45.82799944v-33.10199944h45.82799944c7.63200014 0 15.26400028-7.63200014 15.26400028-15.26400028 0-7.65000042-7.63200014-15.28199958-15.26400028-15.28200056h-25.452l16.54200056-29.26799958c3.81599958-6.37200014 1.26-16.55999986-5.09399986-20.37600042-6.37200014-3.81599958-16.55999986-1.26-20.35800014 5.09400084l-25.47000028 43.27199986-25.452-43.27199986a14.00400028 14.00400028 0 0 0-12.726-7.63200014c-5.09399986 0-10.18799972 2.53800028-12.726 7.63200014s-2.55599958 10.18799972 0 15.28199958l16.55999986 29.26799958h-25.4699993c-7.63200014 0-15.28199958 7.63200014-15.28200056 15.28200056 0 7.63200014 7.65000042 15.26400028 15.28200056 15.26400028h45.82799944v33.10199944h-45.82799944c-7.63200014 0-15.28199958 7.63200014-15.28200056 15.26400028s7.65000042 15.28199958 15.28200056 15.28199958h45.82799944v27.99000028c0 7.65000042 7.63200014 15.28199958 15.26400028 15.28199958s15.28199958-7.63200014 15.28199958-15.28199958v-27.99000028h45.81000014a14.00400028 14.00400028 0 0 0 12.726-7.64999944 16.23599972 16.23599972 0 0 0 0-15.26400028c-3.81599958-3.81599958-8.91000042-6.37200014-15.26400028-7.63200014z" fill="#FFBC5A" p-id="14806"></path><path d="M511.82000014 332.48599958c-142.55999986 0-271.11600042-31.80599986-352.58400056-82.72799916v633.85199916c0 40.73399958 31.82400014 72.54000042 72.5580007 72.54000042h562.57199972c40.73399958 0 71.28000042-33.08400014 72.54000042-72.54000042v-633.85199916c-83.98800014 50.92200028-211.26600042 84.00600042-355.10400056 82.72799916z" fill="#FF4545" p-id="14807"></path><path d="M343.77199972 714.24800028c0-22.91399972 11.44799972-49.644 63.63-53.46000056 49.644-3.81599958 119.64600014 40.73399958 119.64600014 40.73400056s-50.904 68.72399986-109.44000014 68.72399986c-59.83199972 1.26-72.55799972-31.82400014-73.836-55.99799986z m137.466-262.206v56.01600014h-101.8259993v25.452l103.0859993-1.26v38.15999972h-81.44999986v20.37599944h170.55000014s-1.26 16.54199958-7.63200014 35.6400007c-6.37200014 19.07999986-14.00400028 36.89999972-14.00400028 36.89999972s-80.18999986-31.80599986-120.92399944-31.80599986c-43.27199986 0-92.89799958 19.07999986-97.99200042 75.07799972-5.09399986 56.01600014 24.17399972 85.28399972 64.90800028 95.47200042 40.73399958 10.17000042 78.91199958 0 109.45800042-17.81999986 33.10200042-17.81999986 63.64800028-58.55400042 63.6479993-58.55400042l169.27199986 92.91599986s10.18799972-17.81999986 17.82000084-35.63999972c7.63200014-17.81999986 14.00400028-36.89999972 14.0039993-36.89999972l-176.9219993-67.46400084s10.18799972-17.81999986 22.91399972-53.45999958c12.726-35.63999972 12.726-55.99799986 12.726-55.99799986l-90.36000028-1.27800028v-35.63999972l110.71800042-1.26v-25.47000028h-109.44000014v-55.99799986l-58.55400042 2.53800028z" fill="#FFFFFF" p-id="14808"></path></svg>