<?xml version="1.0" standalone="no"?><!DOCTYPE svg PUBLIC "-//W3C//DTD SVG 1.1//EN" "http://www.w3.org/Graphics/SVG/1.1/DTD/svg11.dtd"><svg t="1584420625988" class="icon" viewBox="0 0 1024 1024" version="1.1" xmlns="http://www.w3.org/2000/svg" p-id="19179" xmlns:xlink="http://www.w3.org/1999/xlink" width="200" height="200"><defs><style type="text/css"></style></defs><path d="M0.000698 512.000349A511.999651 511.999651 0 1 0 512.000349 0.000698 511.115288 511.115288 0 0 0 0.000698 512.000349z" fill="#2C97FA" p-id="19180"></path><path d="M622.313001 560.593771a348.159763 348.159763 0 0 0 36.770884-78.196311 310.667425 310.667425 0 0 0 21.876349-81.919944l-146.850809-1.861817v-50.269057l178.036242-1.861816v-37.236339h-179.665332v-81.919944h-88.203576v81.919944h-168.727158v37.236339l166.865341-1.861817v55.854507h-132.189001v29.789071h275.316176a237.381656 237.381656 0 0 1-12.799991 52.130873c-10.938174 27.927254-22.109076 53.99269-22.109076 53.992691s-128.465367-46.545423-198.050774-46.545423c-67.956317 0-150.574443 27.927254-159.6508 107.985381-7.447268 80.058127 38.399974 124.741733 104.494474 139.636268a264.075456 264.075456 0 0 0 178.036242-26.065437 406.900086 406.900086 0 0 0 104.727202-85.643578l273.454359 135.912635s16.523625-26.065437 29.323616-50.269057c9.076357-16.756352 16.523625-35.374521 23.738166-52.130873z m-282.530716 132.189c-97.512661 0-115.665376-48.40724-115.665376-81.919944s20.014532-72.61086 102.632657-78.19631c80.756309-5.585451 192.69805 59.578141 192.698051 59.578141s-82.618125 100.538113-179.665332 100.538113z m0 0" fill="#FFFFFF" p-id="19181"></path></svg>