<?xml version="1.0" standalone="no"?><!DOCTYPE svg PUBLIC "-//W3C//DTD SVG 1.1//EN" "http://www.w3.org/Graphics/SVG/1.1/DTD/svg11.dtd"><svg t="1584419086413" class="icon" viewBox="0 0 1024 1024" version="1.1" xmlns="http://www.w3.org/2000/svg" p-id="45131" xmlns:xlink="http://www.w3.org/1999/xlink" width="200" height="200"><defs><style type="text/css"></style></defs><path d="M896 89.6h-768c-70.4 0-128 57.6-128 128v512c0 70.4 57.6 128 128 128h251.733l132.267 162.133 132.267-162.133h251.733c70.4 0 128-57.6 128-128v-512c0-70.4-57.6-128-128-128zM221.867 571.733c-53.333 0-98.133-44.8-98.133-98.133s44.8-98.133 98.133-98.133c53.333 0 98.133 44.8 98.133 98.133 0 53.333-44.8 98.133-98.133 98.133zM509.867 571.733c-53.333 0-98.133-44.8-98.133-98.133s44.8-98.133 98.133-98.133c53.333 0 98.133 44.8 98.133 98.133 0 53.333-42.667 98.133-98.133 98.133zM797.867 571.733c-53.333 0-98.133-44.8-98.133-98.133s44.8-98.133 98.133-98.133c53.333 0 98.133 44.8 98.133 98.133 0 53.333-42.667 98.133-98.133 98.133z" fill="#ff5e2a" p-id="45132" data-spm-anchor-id="a313x.7781069.0.i32" class="selected"></path></svg>