<?xml version="1.0" standalone="no"?><!DOCTYPE svg PUBLIC "-//W3C//DTD SVG 1.1//EN" "http://www.w3.org/Graphics/SVG/1.1/DTD/svg11.dtd"><svg t="1584421181007" class="icon" viewBox="0 0 1024 1024" version="1.1" xmlns="http://www.w3.org/2000/svg" p-id="31894" xmlns:xlink="http://www.w3.org/1999/xlink" width="200" height="200"><defs><style type="text/css"></style></defs><path d="M512 512m-500.622222 0a500.622222 500.622222 0 1 0 1001.244444 0 500.622222 500.622222 0 1 0-1001.244444 0Z" fill="#FBD333" p-id="31895"></path><path d="M675.9424 462.336c8.6016-3.925333 16.884622-5.074489 24.860444-3.447467a41.187556 41.187556 0 0 1 20.297956 10.3424c5.575111 5.267911 9.716622 11.753244 12.435911 19.467378 2.707911 7.725511 3.345067 15.860622 1.911467 24.405333-1.444978 8.544711-5.256533 16.839111-11.4688 24.8832-6.200889 8.066844-15.394133 15.041422-27.488711 20.957867-8.283022 3.936711-15.928889 7.4752-22.9376 10.592711-6.997333 3.117511-13.403022 5.996089-19.126045 8.6016 0.295822 2.992356 0.557511 5.848178 0.7168 8.658489 0.159289 2.776178 0.250311 5.666133 0.250311 8.624356 0 9.193244-0.8192 17.737956-2.400711 25.622755-1.592889 7.873422-3.675022 15.280356-6.223644 22.163911 8.624356 2.628267 17.692444 5.108622 27.249778 7.395556 9.250133 2.298311 16.497778 7.395556 21.754311 15.291733 5.256533 7.873422 8.612978 16.770844 10.046577 26.612622s1.001244 20.036267-1.194666 30.572089c-2.230044 10.513067-6.235022 19.547022-11.958045 27.079111a45.9776 45.9776 0 0 1-22.471111 16.042667c-9.227378 3.106133-20.206933 2.218667-32.961422-2.730667-34.747733-12.481422-61.110044-23.495111-79.098311-33.006933-18.011022-9.5232-28.626489-15.291733-31.789511-17.260089-1.592889 0-3.037867 0.079644-4.312178 0.250311a34.929778 34.929778 0 0 1-4.278044 0.238934 187.483022 187.483022 0 0 1-19.615289-0.967111c-7.657244 4.255289-16.736711 9.193244-27.2384 14.768355a920.007111 920.007111 0 0 1-34.895645 16.292978 753.993956 753.993956 0 0 1-49.720889 19.683555c-12.731733 4.960711-23.722667 5.848178-32.9728 2.730667a45.897956 45.897956 0 0 1-22.459733-16.042667c-5.745778-7.532089-9.716622-16.566044-11.958044-27.079111a82.978133 82.978133 0 0 1-0.932978-30.572089c1.570133-9.841778 5.006222-18.727822 10.274133-26.612622a35.566933 35.566933 0 0 1 21.731556-15.291733 587.207111 587.207111 0 0 0 19.592533-5.176889c6.382933-1.809067 12.583822-3.527111 18.659556-5.176889a107.758933 107.758933 0 0 1-5.745778-20.923733 140.970667 140.970667 0 0 1-1.922845-23.916089c0-2.651022 0.091022-5.0176 0.250311-7.145245 0.159289-2.139022 0.398222-4.539733 0.728178-7.145244-14.347378-5.586489-32.347022-13.653333-54.021689-24.1664-12.117333-5.905067-21.265067-12.879644-27.500089-20.935111-6.200889-8.032711-10.012444-16.361244-11.446044-24.8832a48.275911 48.275911 0 0 1 1.888711-24.405333 48.241778 48.241778 0 0 1 12.424533-19.456 40.823467 40.823467 0 0 1 20.081778-10.365156c7.805156-1.649778 15.997156-0.489244 24.598756 3.447467 2.264178 0.671289 4.391822 1.479111 6.4512 2.480355 2.082133 0.967111 4.243911 1.956978 6.473955 2.946845a135.202133 135.202133 0 0 0 24.132267 34.5088c10.046578 10.501689 21.504 19.547022 34.4064 27.101866s26.919822 13.471289 42.052267 17.749334 31.152356 6.394311 48.048355 6.394311c16.247467 0 31.789511-1.968356 46.603378-5.905067a175.900444 175.900444 0 0 0 41.119289-16.509155 155.3408 155.3408 0 0 0 33.917155-25.634134 140.037689 140.037689 0 0 0 24.621512-32.756622c3.504356-1.661156 6.906311-3.049244 10.262755-4.1984 3.3792-1.149156 6.803911-2.548622 10.296889-4.1984zM512 520.510578c-18.500267 0-35.862756-2.878578-52.087467-8.624356-16.258844-5.768533-30.5152-13.573689-42.8032-23.426844a111.081244 111.081244 0 0 1-28.899555-34.497422 88.689778 88.689778 0 0 1-10.513067-42.3936c0-11.491556 2.139022-22.584889 6.428445-33.268623a104.595911 104.595911 0 0 1 17.942755-29.320533c-5.415822-5.916444-9.705244-13.232356-12.913778-21.924978a69.176889 69.176889 0 0 1-4.3008-26.373689c0.318578-8.874667 2.707911-17.089422 7.168-24.644266 4.482844-7.566222 11.480178-13.141333 21.037511-16.770845 8.6016-3.2768 16.816356-4.107378 24.598756-2.4576a49.732267 49.732267 0 0 1 20.809956 9.614222c6.030222 4.755911 11.0592 10.683733 15.041422 17.737956 3.9936 7.0656 6.621867 14.210844 7.8848 21.447111 9.568711-1.968356 19.774578-2.958222 30.606222-2.958222 8.283022 0 16.247467 0.500622 23.893333 1.490489 7.645867 0.978489 15.132444 2.616889 22.471111 4.9152a5.916444 5.916444 0 0 1 0.238934-1.718045 5.267911 5.267911 0 0 0 0.238933-1.718044c0.944356-7.236267 3.492978-14.381511 7.634489-21.435733s9.272889-12.970667 15.314489-17.737956a49.504711 49.504711 0 0 1 20.7872-9.614222c7.805156-1.649778 15.997156-0.807822 24.598755 2.4576 9.557333 3.629511 16.577422 9.216 21.060267 16.770844 4.448711 7.554844 6.7584 15.7696 6.906311 24.644267s-1.342578 17.646933-4.539733 26.362311c-3.1744 8.704-7.327289 16.008533-12.424533 21.936356l-4.778667 4.926577c-1.592889 1.649778-3.037867 2.946844-4.3008 3.936711 11.480178 16.429511 17.2032 34.338133 17.2032 53.725867a88.746667 88.746667 0 0 1-10.501689 42.3936 111.0016 111.0016 0 0 1-28.933689 34.486045c-12.253867 9.853156-26.5216 17.669689-42.780444 23.426844-16.247467 5.7344-33.598578 8.612978-52.087467 8.612978z m0-99.566934c-3.197156 0-6.621867 0.091022-10.262756 0.250312a46.296178 46.296178 0 0 0-10.057955 1.467733 16.7936 16.7936 0 0 0-7.395556 3.948089c-1.911467 1.809067-2.878578 4.346311-2.878577 7.634489s0.557511 6.894933 1.683911 10.843022c1.115022 3.948089 2.958222 7.634489 5.506844 11.093333 2.525867 3.447467 5.723022 6.326044 9.545956 8.624356 3.822933 2.309689 8.442311 3.458844 13.869511 3.458844 4.778667 0 9.159111-1.149156 13.152711-3.458844 3.982222-2.298311 7.247644-5.176889 9.773511-8.624356a43.121778 43.121778 0 0 0 5.984711-11.093333c1.410844-3.948089 2.139022-7.554844 2.139022-10.843022s-1.035378-5.825422-3.094755-7.634489a19.057778 19.057778 0 0 0-7.896178-3.948089 48.810667 48.810667 0 0 0-10.0352-1.467733 206.392889 206.392889 0 0 0-10.0352-0.250312z m0 0" fill="#FFFFFF" p-id="31896"></path></svg>