<?xml version="1.0" standalone="no"?><!DOCTYPE svg PUBLIC "-//W3C//DTD SVG 1.1//EN" "http://www.w3.org/Graphics/SVG/1.1/DTD/svg11.dtd"><svg t="1584421093956" class="icon" viewBox="0 0 1024 1024" version="1.1" xmlns="http://www.w3.org/2000/svg" p-id="28358" xmlns:xlink="http://www.w3.org/1999/xlink" width="200" height="200"><defs><style type="text/css"></style></defs><path d="M278.016 552.405333h240.810667v-26.624H278.016v26.624z m0 83.84h131.712v-26.624H278.016v26.624z" fill="#EDA528" p-id="28359"></path><path d="M511.488 0.981333C229.034667 0.981333 0 230.016 0 512.512 0 794.965333 228.992 1024 511.488 1024c282.496 0 511.530667-228.992 511.530667-511.488C1023.018667 229.973333 793.984 0.981333 511.488 0.981333zM230.186667 335.530667A53.376 53.376 0 0 1 283.306667 282.325333h455.04c29.354667 0.085333 53.12 23.893333 53.205333 53.205334v39.978666H230.186667v-39.978666z m562.645333 353.92a53.376 53.376 0 0 1-53.162667 53.205333H283.306667a53.376 53.376 0 0 1-53.12-53.205333v-247.466667h562.645333v247.466667z" fill="#EDA528" p-id="28360"></path></svg>