<?xml version="1.0" standalone="no"?><!DOCTYPE svg PUBLIC "-//W3C//DTD SVG 1.1//EN" "http://www.w3.org/Graphics/SVG/1.1/DTD/svg11.dtd"><svg t="1584421239808" class="icon" viewBox="0 0 1024 1024" version="1.1" xmlns="http://www.w3.org/2000/svg" p-id="34273" xmlns:xlink="http://www.w3.org/1999/xlink" width="200" height="200"><defs><style type="text/css"></style></defs><path d="M512 7.46666667C238.0592 7.46666667 16 229.52586667 16 503.45958122c0 273.9408 222.0592 496 496 496.00000002 273.90537184 0 496-222.0592 496-496.00000002C1008 229.52586667 785.90537184 7.46666667 512 7.46666667z m113.07382816 504.48868545c32.96274272-0.36137184 65.93965728-0.3472 98.91657184-0.02834273 20.27222816 0.19131455 36.22217184 17.03405728 36.208 37.24251456-0.00708545 20.05257184-15.61691455 36.15131457-35.90331455 37.03702815-1.07702816 0.04251457-2.16822816 0.16297184-3.23817088 0.16297185-15.63817184 0.01417184-31.27634272 0-46.91451457 0v-0.16297185c-16.55222816 0-33.1328 0.36137184-49.68502816-0.09211359-20.06674272-0.5456-35.67657184-17.25371457-35.57028639-37.32754368 0.11337184-19.87542816 16.09874272-36.61897184 36.18674271-36.83154273zM495.67451455 747.00266667c-0.73691455 20.2864-16.80731455 35.14514272-37.02994271 35.1664H341.60982816c-21.33508543-0.01417184-37.34171457-15.6736-37.58971359-37.03702816-0.17714272-15.01462816-0.20548543-30.03634272 0.01417088-45.05805729 0.30468545-20.80365728 16.39634272-36.5056 37.12914271-36.5056h117.50948641c20.27222816 0.01417184 36.30011455 14.84457184 37.00868543 35.14514273 0.56685728 16.07748545 0.58102816 32.21874272-0.00708543 48.28914272z m12.06697088-152.95222816c-2.40205728 8.24777184-7.03611457 16.13417184-11.9536 23.29074273-5.36388545 7.82971457-13.80297184 11.04662816-23.43245727 11.03954271-48.79931457-0.06377184-97.57737184-0.09211457-146.37668544 0-11.57805728 0.02125728-20.78948545-4.5632-26.28091456-14.4832-4.53485728-8.15565728-8.66582816-16.92068543-10.87657088-25.93371456-24.92045728-101.40365728-49.43702816-202.9136-74.05988544-304.3952-1.16914272-4.8112-2.3312-9.61531455-3.45782912-14.44068544-5.39222816-23.1632 11.2592-44.30697184 35.07428544-44.33531456 51.12342816-0.07085728 102.24685728-0.02834272 153.3632-0.01417088H552.176c20.16594272 0 36.20091455 14.44777184 37.27794272 34.43657088 0.28342816 5.37805728-1.5872 10.95451457-2.89805729 16.32548544a358441.83291455 358441.83291455 0 0 1-63.35337088 257.3248c-5.03085728 20.42811455-9.57988543 41.01211455-15.46102912 61.18514368z m268.08800002 188.09737088c-49.07565728 0.0496-98.16548545 0.02125728-147.23405729 0.02125728-18.28114272 0-36.54102816 0.01417184-54.81508544-0.01417184-22.00114272-0.01417184-38.5392-16.43885728-38.57462815-38.39748544-0.0496-28.01691457-0.03542816-56.04091455-0.00708641-84.06491456 0.02834272-22.15702816 16.26171457-38.44708543 38.37622912-38.47542816 33.75634272-0.05668543 67.49851457-0.01417184 101.24777088-0.01417184 33.75634272 0 67.5056-0.0496 101.26194368 0.01417184 18.4016 0.04251457 33.1328 11.91817184 37.02285632 29.72457184 0.496 2.23908543 0.56685728 4.60571455 0.56685729 6.90857088 0.04251457 28.9664 0.02834272 57.91862816 0.02834271 86.87085728-0.00708545 21.09417184-16.44594272 37.41965728-37.87314271 37.42674272z" fill="#db639b" p-id="34274"></path><path d="M589.45394272 259.21500939c-1.06994272-19.9888-17.112-34.43657184-37.27794272-34.43657088H399.74102816c-51.11634272-0.01417184-102.23977184-0.05668543-153.3632 0.01417088-23.81508545 0.02834272-40.46651457 21.17211455-35.07428544 44.33531456 1.12662816 4.82537184 2.28868545 9.62948543 3.45782912 14.44068544 24.62994272 101.4816 49.14651457 202.99154272 74.05988544 304.3952 2.21782816 9.01302816 6.3488 17.77805728 10.87657088 25.93371456 5.49142816 9.92 14.70285728 14.50445728 26.28091456 14.4832 48.79931457-0.09211457 97.57737184-0.06377184 146.37668544 0 9.6224 0.00708545 18.06857184-3.20274272 23.43245729-11.03954271 4.9104-7.15657184 9.55154272-15.04297184 11.9536-23.29074273 5.87405728-20.18011455 10.43017184-40.75702816 15.45394271-61.18514368 21.14377184-85.77257184 42.28045728-171.53805728 63.35337184-257.3248 1.31794272-5.37097184 3.18857184-10.94742816 2.90514272-16.32548544zM813.10034272 650.94163851c-3.89005728-17.81348545-18.62125728-29.68205728-37.02285727-29.72457184-33.75634272-0.06377184-67.5056-0.01417184-101.26194273-0.01417184-33.74925728 0-67.49142816-0.04251457-101.24777088 0.01417184-22.11451457 0.02834272-38.34788543 16.3184-38.37622912 38.47542816-0.02834272 28.024-0.04251457 56.048 0.00708544 84.06491456 0.03542816 21.95862816 16.57348545 38.38331455 38.57462912 38.39748544 18.27405728 0.02834272 36.53394272 0.01417184 54.81508544 0.01417184 49.07565728 0 98.16548545 0.02834272 147.23405728-0.02125728 21.42011457-0.00708545 37.86605728-16.33257184 37.86605728-37.42674272 0-28.95222816 0.01417184-57.90445728-0.02834273-86.87085728a31.77942816 31.77942816 0 0 0-0.55977183-6.90857088zM458.68 663.56838124H341.17051457c-20.7328 0-36.82445728 15.70902816-37.12914273 36.50559998-0.21965728 15.02171457-0.19131455 30.04342816-0.01417184 45.05805729 0.248 21.36342816 16.25462816 37.02285728 37.58971457 37.03702816h117.03474271c20.22262816-0.02125728 36.28594272-14.88 37.02994272-35.1664 0.58811455-16.07748545 0.57394272-32.21165728 0.00708545-48.28914272-0.70857184-20.30765728-16.73645728-35.13097184-37.00868545-35.14514271zM624.45737184 586.11443851c16.55222816 0.4464 33.1328 0.09211457 49.68502816 0.09211359v0.16297185c15.63817184 0 31.27634272 0.01417184 46.91451455 0 1.06994272 0 2.16114272-0.12754272 3.23817088-0.16297185 20.2864-0.88571457 35.89622816-16.97737184 35.90331457-37.03702815 0.01417184-20.20845728-15.93577184-37.0512-36.208-37.24251456a4794.80365728 4794.80365728 0 0 0-98.91657184 0.02834271c-20.088 0.20548543-36.07337184 16.95611455-36.17965632 36.83154273-0.11337184 20.07382816 15.49645728 36.78194272 35.5632 37.32754368z" fill="#ffffff" p-id="34275"></path></svg>