<?xml version="1.0" standalone="no"?><!DOCTYPE svg PUBLIC "-//W3C//DTD SVG 1.1//EN" "http://www.w3.org/Graphics/SVG/1.1/DTD/svg11.dtd"><svg t="1584419464079" class="icon" viewBox="0 0 1024 1024" version="1.1" xmlns="http://www.w3.org/2000/svg" p-id="1772" xmlns:xlink="http://www.w3.org/1999/xlink" width="200" height="200"><defs><style type="text/css"></style></defs><path d="M3.849624 511.037594C3.849624 793.022556 232.324812 1021.497744 514.309774 1021.497744c282.177444 0 510.46015-228.475188 510.460151-510.46015C1024.577444 229.052632 796.102256 0.577444 514.117293 0.577444 232.132331 0.384962 3.849624 229.245113 3.849624 511.037594z m0 0" fill="#ff5e2a" p-id="1773" data-spm-anchor-id="a313x.7781069.0.i8" class=""></path><path d="M122.803008 511.037594c0 216.156391 175.350376 391.506767 391.506766 391.506767 216.156391 0 391.506767-175.350376 391.506767-391.506767 0-216.348872-175.350376-391.506767-391.506767-391.506767-216.156391 0-391.506767 175.157895-391.506766 391.506767z m0 0" fill="#ff5e2a" p-id="1774" data-spm-anchor-id="a313x.7781069.0.i9" class=""></path><path d="M905.816541 511.037594c0-83.729323-27.909774-167.651128-76.8-230.784962-62.941353-48.890226-146.863158-76.8-230.784962-76.8-216.733835 0-391.506767 174.772932-391.506767 391.506766 0 83.729323 27.909774 167.651128 76.8 230.784963 63.133835 48.890226 146.863158 76.8 230.784962 76.8 216.733835-0.192481 391.506767-174.772932 391.506767-391.506767z m0 0" fill="#ff5e2a" p-id="1775" data-spm-anchor-id="a313x.7781069.0.i10" class=""></path><path d="M319.903759 718.147368v-38.881203c19.633083-3.657143 29.449624-15.206015 29.449624-34.839097v-138.393985c0-12.511278-6.544361-18.863158-19.440601-18.863158h-10.009023v-40.03609h20.980452c16.360902 0 28.294737 3.079699 35.609022 9.239097 8.276692 7.121805 12.511278 19.825564 12.511278 38.111279v153.6c0 20.018045 11.16391 30.027068 33.299248 30.027067H717.954887v40.03609H426.923308c-14.243609 0-26.369925-1.924812-35.993985-5.966917-6.544361-2.502256-13.666165-7.506767-21.365413-14.821053-8.084211 7.314286-15.398496 12.511278-21.750376 15.398497-7.506767 3.079699-16.745865 4.81203-27.909775 5.389473z m1.154888-325.485714v-41.190977h74.490225V392.661654h-74.490225z m95.470676 258.309775v-40.421053c15.206015-3.079699 22.905263-14.243609 22.905263-33.106767v-158.796992c0-18.285714 5.004511-32.529323 15.206016-42.730828 10.393985-10.393985 24.252632-15.590977 41.960902-15.590977h167.073684c5.389474 0 9.046617-0.577444 10.586466-1.53985 2.117293-1.347368 3.27218-4.234586 3.464662-8.276691h40.421052c-3.079699 16.745865-7.891729 28.294737-14.43609 35.031579-10.009023 9.816541-21.750376 14.628571-35.609022 14.628571h-159.374436c-19.055639 0-28.487218 6.929323-28.487218 20.78797v6.929323h185.936842c15.206015 0 27.332331 2.887218 36.571428 8.469173 7.891729 4.81203 11.933835 11.933835 11.933835 20.980451 0 13.281203-9.431579 30.41203-28.102256 51.2-15.783459 17.900752-32.914286 34.454135-51.777443 49.852632 25.984962 18.863158 51.2 34.839098 75.837594 47.735338v46.003008c-25.792481-13.473684-45.618045-24.830075-59.669173-34.069173-5.196992-3.464662-21.365414-14.821053-48.697745-34.261654-25.984962 19.055639-42.923308 30.989474-50.430075 35.801503-13.666165 8.854135-32.721805 19.825564-57.166917 32.529324v-45.425564c15.97594-9.046617 28.679699-16.938346 38.303759-23.290226 16.938346-11.16391 29.449624-19.633083 37.726316-25.022556-27.717293-22.32782-50.237594-45.233083-67.560902-68.71579h50.430075c16.553383 18.863158 32.914286 34.069173 48.890225 45.425564 35.993985-27.717293 54.087218-46.772932 54.087218-57.166917 0-6.544361-4.619549-10.009023-13.666165-10.009022h-162.454135V573.593985c0 22.135338-5.966917 40.806015-17.708271 56.01203-7.314286 9.239098-16.360902 15.398496-26.947368 18.285714-4.81203 1.154887-10.971429 2.117293-19.248121 3.0797z" fill="#FBB11B" p-id="1776"></path><path d="M304.505263 702.171429v-39.651128c20.018045-3.657143 30.027068-15.398496 30.027068-35.416542v-141.088721c0-12.703759-6.544361-19.24812-19.825564-19.248121h-10.201504v-40.806015h21.365414c16.745865 0 28.87218 3.079699 36.378947 9.431579 8.469173 7.314286 12.703759 20.210526 12.703759 38.688722v156.487218c0 20.403008 11.356391 30.604511 33.876692 30.604511H710.255639v40.806015H413.449624c-14.628571 0-26.754887-2.117293-36.76391-6.159398-6.544361-2.694737-13.858647-7.699248-21.750376-15.206015-8.276692 7.506767-15.590977 12.703759-22.327819 15.590977-7.314286 3.464662-16.745865 5.389474-28.102256 5.966918z m1.154887-331.645113v-42.153384h76.030076v42.153384h-76.030076z m97.395489 263.121804v-41.190977c15.590977-3.27218 23.290226-14.43609 23.290226-33.684211v-161.876691c0-18.670677 5.196992-33.106767 15.398496-43.693233 10.586466-10.586466 24.830075-15.783459 42.730827-15.783459h170.153383c5.581955 0 9.239098-0.577444 10.778948-1.53985 2.117293-1.53985 3.464662-4.234586 3.464661-8.276691H710.255639c-3.079699 16.938346-8.084211 28.87218-14.821053 35.609022-10.201504 10.009023-22.32782 15.013534-36.378947 15.013534H496.601504c-19.440602 0-29.064662 7.121805-29.064662 21.172932v7.121805h189.593985c15.398496 0 27.909774 2.887218 37.148872 8.661654 8.084211 5.004511 12.126316 12.126316 12.126316 21.365413 0 13.473684-9.62406 30.989474-28.679699 52.162406-15.97594 18.285714-33.684211 35.22406-52.932331 50.815038 26.369925 19.24812 52.162406 35.416541 77.377444 48.697744V635.18797c-26.369925-13.858647-46.580451-25.407519-60.824061-34.839098-5.196992-3.464662-21.750376-15.206015-49.467669-35.031579-26.562406 19.440602-43.693233 31.566917-51.392481 36.571429-13.858647 9.046617-33.491729 20.210526-58.321804 33.299248v-46.195489c16.360902-9.239098 29.257143-17.130827 39.073684-23.867669 17.130827-11.356391 30.027068-20.018045 38.49624-25.6-28.102256-22.712782-51.2-46.195489-68.90827-70.063158h51.392481c16.938346 19.24812 33.491729 34.646617 49.852631 46.195489 36.76391-28.102256 55.049624-47.735338 55.049625-58.321805 0-6.736842-4.619549-10.201504-13.858647-10.201503h-165.533835v107.596992c0 22.520301-5.966917 41.57594-18.093233 56.974436-7.506767 9.431579-16.745865 15.590977-27.524812 18.670677-4.234586 1.347368-10.586466 2.309774-19.055639 3.27218z" fill="#ffffff" p-id="1777" data-spm-anchor-id="a313x.7781069.0.i11" class="selected"></path></svg>