<?xml version="1.0" standalone="no"?><!DOCTYPE svg PUBLIC "-//W3C//DTD SVG 1.1//EN" "http://www.w3.org/Graphics/SVG/1.1/DTD/svg11.dtd"><svg t="1584419852209" class="icon" viewBox="0 0 1024 1024" version="1.1" xmlns="http://www.w3.org/2000/svg" p-id="3032" xmlns:xlink="http://www.w3.org/1999/xlink" width="200" height="200"><defs><style type="text/css"></style></defs><path d="M290.133333 512c0 122.5344 99.3344 221.866667 221.866667 221.866667s221.866667-99.3344 221.866667-221.866667-99.3344-221.866667-221.866667-221.866667c-122.474667 0.1408-221.725867 99.392-221.866667 221.866667z m221.866667-187.733333c103.684267 0 187.733333 84.049067 187.733333 187.733333s-84.049067 187.733333-187.733333 187.733333-187.733333-84.049067-187.733333-187.733333c0.125867-103.633067 84.100267-187.607467 187.733333-187.733333z m0 0" p-id="3033" data-spm-anchor-id="a313x.7781069.0.i15" class="selected" fill="#ff1e2a"></path><path d="M512 597.333333c-18.850133 0-34.133333-15.2832-34.133333-34.133333h-34.133334c0.117333 31.0336 21.149867 58.084267 51.2 65.841067V665.6h34.133334v-36.558933c33.250133-8.5568 54.941867-40.516267 50.609066-74.574934C575.332267 520.398933 546.331733 494.890667 512 494.933333c-18.850133 0-34.133333-15.2832-34.133333-34.133333s15.2832-34.133333 34.133333-34.133333 34.133333 15.2832 34.133333 34.133333h34.133334c-0.117333-31.0336-21.149867-58.084267-51.2-65.841067V358.4h-34.133334v36.558933c-33.250133 8.5568-54.933333 40.516267-50.600533 74.574934C448.6656 503.601067 477.666133 529.109333 512 529.066667c18.850133 0 34.133333 15.2832 34.133333 34.133333s-15.2832 34.133333-34.133333 34.133333z m0 0" p-id="3034" data-spm-anchor-id="a313x.7781069.0.i16" class="selected" fill="#ff1e2a"></path><path d="M453.973333 788.484267A17.060267 17.060267 0 0 0 426.666667 802.133333v22.801067c-131.3344-35.861333-226.299733-149.917867-237.774934-285.568-11.4752-135.658667 62.9824-264.042667 186.4256-321.457067a17.079467 17.079467 0 0 0 9.2416-10.8672 17.045333 17.045333 0 0 0-2.2336-14.084266l-57.344-86.016a17.064533 17.064533 0 0 0-21.947733-5.7344C148.209067 179.543467 50.766933 338.4832 51.2 512c1.192533 221.1584 158.357333 410.715733 375.466667 452.849067V1006.933333a17.064533 17.064533 0 0 0 27.306666 13.649067l136.533334-102.4c4.3008-3.214933 6.826667-8.273067 6.826666-13.649067s-2.525867-10.432-6.826666-13.649066zM460.8 972.8v-22.357333a17.060267 17.060267 0 0 0-14.474667-16.859734C239.114667 900.209067 86.417067 721.883733 85.333333 512c-0.407467-155.234133 83.867733-298.3424 219.818667-373.284267l38.039467 57.092267c-133.358933 71.125333-207.773867 218.276267-186.007467 367.850667 21.7664 149.568 135.0336 269.408 283.140267 299.575466a17.3632 17.3632 0 0 0 14.2016-3.517866 17.056 17.056 0 0 0 6.274133-13.207467V836.266667l91.016533 68.266666z m0 0M597.333333 59.150933V17.066667a17.064533 17.064533 0 0 0-27.306666-13.649067l-136.533334 102.4a17.0624 17.0624 0 0 0 0 27.298133l136.533334 102.4A17.060267 17.060267 0 0 0 597.333333 221.866667V199.0656c132.7424 36.151467 228.2176 152.1344 238.199467 289.3504 9.975467 137.2096-67.716267 265.783467-193.824 320.768a17.045333 17.045333 0 0 0-9.525333 10.698667 17.073067 17.073067 0 0 0 1.984 14.184533l55.9744 87.04a17.088 17.088 0 0 0 14.3744 7.8336 17.275733 17.275733 0 0 0 7.383466-1.706667c179.4176-86.336 283.093333-278.133333 257.041067-475.5264C942.8928 254.3168 793.002667 95.982933 597.333333 59.150933z m113.2416 830.583467L673.4336 832c136.324267-68.708267 214.165333-216.234667 193.9328-367.552-20.232533-151.3152-134.101333-273.198933-283.682133-303.68a17.0368 17.0368 0 0 0-14.208 3.5072A17.045333 17.045333 0 0 0 563.2 177.4912V187.733333l-91.016533-68.266666L563.2 51.2v22.357333a17.066667 17.066667 0 0 0 14.474667 16.859734C784.891733 123.790933 937.582933 302.116267 938.666667 512c0.782933 158.715733-87.266133 304.533333-228.091734 377.7344z m0 0" p-id="3035" data-spm-anchor-id="a313x.7781069.0.i14" class="selected" fill="#ff1e2a"></path></svg>