<?xml version="1.0" standalone="no"?><!DOCTYPE svg PUBLIC "-//W3C//DTD SVG 1.1//EN" "http://www.w3.org/Graphics/SVG/1.1/DTD/svg11.dtd"><svg t="1584417470842" class="icon" viewBox="0 0 1024 1024" version="1.1" xmlns="http://www.w3.org/2000/svg" p-id="1605" xmlns:xlink="http://www.w3.org/1999/xlink" width="200" height="200"><defs><style type="text/css"></style></defs><path d="M513.86413511 767.28294756a3.78005216 3.78005216 0 0 1-1.86413511 0.36246991 3.72827022 3.72827022 0 0 1-1.86413511-0.36246991C385.44593898 685.57169186 304.87387614 593.40056652 304.87387614 532.45370429c0-52.29934577 46.44803318-94.91554608 103.56306254-94.91554607 32.62236445 0 58.40956682 18.12353539 70.83713422 28.94587615l32.7259271 28.27271585 32.7259271-28.27271585c12.42756741-10.82233955 38.26655171-28.94587616 70.83713422-28.94587615 57.11502814 0 103.56306132 42.56441837 103.56306254 94.91554607 0 60.94686223-80.57206162 153.11798636-205.26198875 234.82924327zM615.56306132 382.54617244c-39.87177836 0-76.11885037 17.45037631-103.56306132 41.2698809-27.49599289-23.81950461-63.69128297-41.26987969-103.56306132-41.2698809-85.80199705 0-155.34459259 67.108864-155.3445926 149.90753185 0 118.68326875 162.28331732 237.31475555 229.90999703 281.63974637a52.92072414 52.92072414 0 0 0 57.99531378 0c67.62667971-44.32499083 229.90999703-162.95647763 229.90999703-281.6915271 0-82.74688592-69.54259555-149.85574992-155.3445926-149.85575112z m310.68918519 491.76919942c0 28.58340503-23.24990695 51.83331199-51.78153006 51.83331199H149.52928355c-28.5316231 0-51.78153127-23.24990695-51.78153006-51.78153126v-453.81333569c0-14.80951823 6.31734636-28.89409422 17.39859437-38.73258549l362.47071524-322.70250075a51.67796739 51.67796739 0 0 1 68.7658738 0l362.47071524 322.70250075c11.08124801 9.83849127 17.39859437 23.92306725 17.39859437 38.73258549v453.76155496z m17.03612447-531.27850667l-362.47071646-322.65071881a103.25237214 103.25237214 0 0 0-137.63530904 0l-362.47071646 322.65071881c-22.11071408 19.67698132-34.74540681 47.89791645-34.7454068 77.51695171v453.76155496C45.96622222 931.58574459 92.31069275 978.03377778 149.52928355 978.03377778h724.9414329c57.16681008 0 103.56306132-46.44803318 103.56306133-103.71840592v-453.76155496c0-29.61903525-12.63469394-57.83997038-34.7454068-77.51695171z" fill="#272A2B" p-id="1606"></path></svg>