<?xml version="1.0" standalone="no"?><!DOCTYPE svg PUBLIC "-//W3C//DTD SVG 1.1//EN" "http://www.w3.org/Graphics/SVG/1.1/DTD/svg11.dtd"><svg t="1584420922417" class="icon" viewBox="0 0 1024 1024" version="1.1" xmlns="http://www.w3.org/2000/svg" p-id="24052" xmlns:xlink="http://www.w3.org/1999/xlink" width="200" height="200"><defs><style type="text/css"></style></defs><path d="M512 512m-512 0a512 512 0 1 0 1024 0 512 512 0 1 0-1024 0Z" fill="#E03236" p-id="24053"></path><path d="M723.3 744.7H300.7c-14.6 0-26.4-19.1-26.4-42.6v-85.2h475.4v85.2c0 23.5-11.8 42.6-26.4 42.6zM776.1 279.3c-29.2 0-52.8 23.7-52.8 52.8 0 20.1 11.2 37.6 27.7 46.5l-107 85.6-107-85.6c16.5-8.9 27.7-26.4 27.7-46.5 0-29.2-23.6-52.8-52.8-52.8s-52.8 23.7-52.8 52.8c0 20.1 11.2 37.6 27.7 46.5l-107 85.6-107-85.6c16.5-8.9 27.7-26.4 27.7-46.5 0-29.2-23.6-52.8-52.8-52.8S195 303 195 332.2s23.6 52.8 52.8 52.8v205.4c0 14.6 11.8 26.4 26.4 26.4h475.4c14.6 0 26.4-11.8 26.4-26.4V385c29.2 0 52.8-23.7 52.8-52.8s-23.5-52.9-52.7-52.9z" fill="#FFFFFF" p-id="24054"></path></svg>