<?xml version="1.0" standalone="no"?><!DOCTYPE svg PUBLIC "-//W3C//DTD SVG 1.1//EN" "http://www.w3.org/Graphics/SVG/1.1/DTD/svg11.dtd"><svg t="1584420255099" class="icon" viewBox="0 0 1024 1024" version="1.1" xmlns="http://www.w3.org/2000/svg" p-id="11658" xmlns:xlink="http://www.w3.org/1999/xlink" width="200" height="200"><defs><style type="text/css"></style></defs><path d="M0 512c0 282.624 229.376 512 512 512s512-229.376 512-512S794.624 0 512 0 0 229.376 0 512z" fill="#B8F2FF" p-id="11659"></path><path d="M19.968 654.336c166.4-6.656 692.224-32.768 995.328-50.688 5.12-29.696 8.192-60.416 8.192-91.648 0-29.696-2.56-59.392-7.68-87.552C747.008 433.664 249.856 481.28 0.512 527.36c1.024 44.032 8.192 86.528 19.456 126.976z" fill="#E8E7D4" p-id="11660"></path><path d="M16.896 643.072c201.216 2.048 744.96 4.608 989.184 2.56 11.264-42.496 17.408-86.528 17.408-131.072-299.008 3.072-849.92 22.016-1021.952 42.496 3.072 29.696 8.192 58.368 15.36 86.016z" fill="#FFFFF4" p-id="11661"></path><path d="M336.384 219.136c-5.12 0-9.728 1.024-13.824 2.56-13.824-19.968-37.376-33.28-63.488-33.28s-49.664 13.312-63.488 33.28c-4.608-1.536-9.216-2.56-13.824-2.56-25.6 0-46.592 20.992-46.592 46.592h248.32c-0.512-26.112-21.504-46.592-47.104-46.592zM861.696 368.64c-2.56 0-5.12 0.512-7.168 1.024-7.168-10.752-19.456-17.408-33.28-17.408s-26.112 7.168-33.28 17.408c-2.56-0.512-4.608-1.024-7.168-1.024-13.312 0-24.576 10.752-24.576 24.576h130.56c-0.512-13.824-11.776-24.576-25.088-24.576z" fill="#FFFFFF" p-id="11662"></path><path d="M3.584 571.904c29.696 254.464 245.76 452.096 508.416 452.096s478.72-197.632 508.416-452.096H3.584z" fill="#B0EB81" p-id="11663"></path><path d="M617.984 350.208l-25.088-31.744c-6.656-8.704-19.968-8.704-26.624 0l-25.088 31.744-32.768 258.56h142.848l-33.28-258.56z" fill="#FFFFFF" p-id="11664"></path><path d="M569.856 317.952c-0.512-0.512-1.536-1.024-2.048-1.536-0.512 0.512-1.536 1.024-2.048 1.536l-25.088 31.744-32.768 258.56h119.808l-32.768-258.56-25.088-31.744z" fill="#DDDDDD" p-id="11665"></path><path d="M652.8 642.56H506.368v-101.888c0-1.024 1.024-2.048 2.048-2.048h142.336c1.024 0 2.048 1.024 2.048 2.048v101.888z" fill="#8C665B" p-id="11666"></path><path d="M579.584 561.664c-15.872 0-28.672 12.8-28.672 28.672v51.712h57.344v-51.712c0-15.872-12.8-28.672-28.672-28.672z" fill="#674447" p-id="11667"></path><path d="M428.544 473.6l39.936 39.936c8.704 8.704 23.552 6.656 29.696-4.096l81.408-146.944-146.944 81.408c-10.752 6.144-12.8 20.992-4.096 29.696z m302.08 0l-39.936 39.936c-8.704 8.704-23.552 6.656-29.696-4.096l-81.408-146.944 146.944 81.408c10.752 6.144 12.8 20.992 4.096 29.696z m0-222.208l-39.936-39.936c-8.704-8.704-23.552-6.656-29.696 4.096l-81.408 146.944 146.944-81.408c10.752-6.144 12.8-20.992 4.096-29.696z m-302.08 0l39.936-39.936c8.704-8.704 23.552-6.656 29.696 4.096l81.408 146.944-146.944-81.408c-10.752-6.144-12.8-20.992-4.096-29.696z" fill="#D66B78" p-id="11668"></path><path d="M556.544 362.496c0 12.8 10.24 23.04 23.04 23.04s23.04-10.24 23.04-23.04-10.24-23.04-23.04-23.04-23.04 10.24-23.04 23.04z" fill="#8C665B" p-id="11669"></path><path d="M871.936 698.368c-4.608 0-8.704-4.096-8.704-8.704v-94.208c0-4.608 4.096-8.704 8.704-8.704 4.608 0 8.704 4.096 8.704 8.704v94.208c0 4.608-3.584 8.704-8.704 8.704z" fill="#674447" p-id="11670"></path><path d="M927.232 586.752c0 30.72-24.576 55.296-55.296 55.296s-55.296-24.576-55.296-55.296c0-30.72 24.576-124.416 55.296-124.416s55.296 94.208 55.296 124.416z" fill="#43AB5F" p-id="11671"></path><path d="M871.936 462.848c-7.68 0-14.848 6.144-21.504 15.36 28.16 0 50.688 86.016 50.688 113.664 0 24.064-16.896 44.544-39.936 49.664 3.584 0.512 7.168 1.024 10.752 1.024 30.72 0 55.296-24.576 55.296-55.296 0-30.72-24.576-124.416-55.296-124.416z" fill="#71BE63" p-id="11672"></path><path d="M129.024 676.864c-3.584 0-6.144-2.048-6.144-4.608v-50.176c0-2.56 2.56-4.608 6.144-4.608s6.144 2.048 6.144 4.608v50.176c0 2.56-3.072 4.608-6.144 4.608z" fill="#674447" p-id="11673"></path><path d="M161.792 609.28c0 25.6-14.848 37.888-33.28 37.888s-33.28-12.8-33.28-37.888c0-25.6 20.48-124.416 33.28-124.416s33.28 98.816 33.28 124.416z" fill="#43AB5F" p-id="11674"></path><path d="M129.024 484.864c-2.56 0-5.12 4.096-8.192 10.24 10.24 15.872 24.064 94.208 24.064 115.712 0 20.992-9.216 33.28-22.016 35.84 2.048 0.512 4.096 0.512 6.144 0.512 18.432 0 33.28-12.8 33.28-37.888-0.512-25.6-20.48-124.416-33.28-124.416z" fill="#71BE63" p-id="11675"></path><path d="M242.688 643.072c-5.12 0-8.704-4.096-8.704-8.704v-95.744c0-5.12 4.096-8.704 8.704-8.704 5.12 0 8.704 4.096 8.704 8.704v95.744c0 5.12-4.096 8.704-8.704 8.704z" fill="#674447" p-id="11676"></path><path d="M298.496 530.432c0 31.232-25.088 56.32-56.32 56.32s-56.32-25.088-56.32-56.32 25.088-126.464 56.32-126.464 56.32 95.232 56.32 126.464z" fill="#43AB5F" p-id="11677"></path><path d="M242.688 403.968c-7.68 0-15.36 6.144-22.016 15.36 28.16 0 51.2 87.04 51.2 115.712 0 24.576-17.408 45.056-40.448 50.176 3.584 0.512 7.168 1.024 11.264 1.024 31.232 0 56.32-25.088 56.32-56.32-0.512-30.72-25.6-125.952-56.32-125.952zM24.576 668.672C90.624 875.008 284.16 1024 512 1024c221.696 0 410.112-140.8 481.792-337.92-221.184-10.752-306.688-123.392-491.008-123.392-240.128 0-307.2 96.768-478.208 105.984z" fill="#71BE63" p-id="11678"></path><path d="M993.792 686.08c-221.184-10.752-327.168-114.688-510.976-114.688-11.264 0-22.016 0.512-32.768 1.024 203.776 14.336 326.656 176.128 477.184 239.616 27.136-38.4 50.176-80.384 66.56-125.952z" fill="#94D75B" p-id="11679"></path><path d="M50.688 733.184C133.12 905.216 308.736 1024 512 1024c135.68 0 258.56-52.736 350.208-138.752-323.584-18.432-412.16-239.104-811.52-152.064z" fill="#43AB5F" p-id="11680"></path><path d="M503.296 777.216c26.112 11.264 52.224 23.04 78.848 34.304 112.128-94.208 241.152-167.936 165.376-219.648l-45.056-20.48c127.488 81.408-41.984 129.024-199.168 205.824z" fill="#C4B478" p-id="11681"></path><path d="M110.08 828.416c45.056 57.344 102.4 104.448 167.424 138.24 2.048-91.136 59.392-154.112 129.536-225.792-34.816-10.752-71.68-19.456-112.64-24.064-66.56 16.384-139.264 58.88-184.32 111.616z" fill="#BCA077" p-id="11682"></path><path d="M747.008 592.384l-45.056-20.48c49.664 31.232 54.272 50.176 32.768 76.8 6.144 6.144 11.776 12.288 17.92 18.432 22.528-28.672 25.6-53.248-5.632-74.752z" fill="#CCBE84" p-id="11683"></path><path d="M69.12 768c88.576 153.088 253.44 256 442.88 256 55.296 0 108.032-8.704 157.696-25.088-147.968-70.144-355.328-311.808-600.576-230.912z" fill="#3C9B61" p-id="11684"></path><path d="M204.288 753.152c-35.84 19.968-69.12 46.08-93.696 75.264 2.56 3.584 5.632 6.656 8.192 9.728 6.656 7.68 13.312 15.36 19.968 22.528 2.56 3.072 5.12 5.632 8.192 8.704l13.312 13.312c2.56 2.56 5.12 5.12 7.68 7.168 5.12 4.608 9.728 8.704 14.848 12.8 2.048 2.048 4.608 3.584 6.656 5.632 5.632 4.608 11.264 8.704 16.896 13.312 1.536 1.024 3.072 2.048 4.608 3.584 20.992 15.36 43.52 29.184 66.56 41.472 1.536-66.56 32.256-117.76 75.776-167.936-47.104-23.04-97.28-39.936-148.992-45.568z" fill="#AD9172" p-id="11685"></path></svg>