<?xml version="1.0" standalone="no"?><!DOCTYPE svg PUBLIC "-//W3C//DTD SVG 1.1//EN" "http://www.w3.org/Graphics/SVG/1.1/DTD/svg11.dtd"><svg t="1584421220267" class="icon" viewBox="0 0 1024 1024" version="1.1" xmlns="http://www.w3.org/2000/svg" p-id="33443" xmlns:xlink="http://www.w3.org/1999/xlink" width="200" height="200"><defs><style type="text/css"></style></defs><path d="M512 512m-512 0a512 512 0 1 0 1024 0 512 512 0 1 0-1024 0Z" fill="#FFA940" p-id="33444"></path><path d="M401.996255 272.340426c-55.208851 0-100.090553 53.051915-100.090553 118.239319 0 51.2 28.519489 96.735319 69.087319 112.40034-3.834553 38.977362-17.64766 178.698894-17.647659 197.065532a48.75983 48.75983 0 0 0 48.650893 48.738043c29.565277 0 48.650894-19.172766 48.650894-48.738043 0-22.353702-12.941617-159.918298-16.449362-197.544851 39.936-16.057191 67.97617-61.20034 67.97617-111.921021 0-65.187404-44.881702-118.239319-100.177702-118.239319z m16.928681 220.813617c-3.268085 0.958638-0.479319 5.75183 0.413958 17.408 6.623319 69.109106 13.813106 172.075574 13.813106 193.013106 0 21.874383-19.172766 27.234043-31.155745 27.234042-14.771745 0-30.349617-12.462298-30.349617-27.234042 0-17.909106 9.019915-139.65617 14.684596-195.889021 0.653617-6.53617 2.810553-13.181277-1.26366-14.532085-38.193021-9.913191-65.906383-52.180426-65.906383-100.504511 0-56.646809 37.147234-102.661447 82.835064-102.661447s82.835064 46.101787 82.835064 102.661447c0 48.324085-27.713362 90.591319-65.906383 100.504511z m293.909787-207.153022c-4.793191 0-8.300936 2.309447-8.300936 9.107064v114.557277c0 33.792-27.800511 70.067745-60.633872 77.410042-6.645106 1.437957-5.272511 2.963064-5.272511 8.300936 0 0.326809 0.152511 0.479319 0.305022 0.718979 5.991489 62.485787 17.190128 184.625021 17.190127 203.950298 0 19.978894-17.102979 28.127319-28.04017 28.127319-13.508085 0-28.04017-14.619234-28.04017-28.105532 0-16.384 14.139915-153.164255 19.238127-204.516766 0.087149-0.23966-0.065362-0.413957-0.065361-0.653617 0-4.618894 0.152511-6.318298-6.318298-7.669106-33.225532-7.015489-61.44-43.356596-61.44-77.562553v-115.363405c0-6.77583-4.313872-8.300936-8.300936-8.300936-4.313872 0-8.300936 1.525106-8.300936 8.300936v115.363405c0 41.940426 27.321191 75.100596 66.233191 88.281872-3.769191 37.299745-17.756596 183.666383-17.756596 202.185532 0 26.841872 17.821957 44.729191 44.66383 44.729191 29.565277 0 44.66383-15.163915 44.66383-44.729191 0-22.528-13.181277-166.476255-16.62366-202.51234 38.258383-13.508085 65.034894-46.406809 65.034894-87.802554v-114.709787c0.065362-6.797617-3.769191-9.107064-8.235575-9.107064zM489.559149 282.645787h17.16834v17.168341h-17.16834z" fill="#FFFFFF" p-id="33445"></path><path d="M658.03983 428.032a8.388085 8.388085 0 0 1-8.388085-8.388085v-125.886638a8.388085 8.388085 0 1 1 16.77617 0v125.821276a8.453447 8.453447 0 0 1-8.388085 8.453447z m-60.633873 0a8.388085 8.388085 0 0 1-8.388085-8.388085v-125.886638a8.388085 8.388085 0 1 1 16.776171 0v125.821276a8.453447 8.453447 0 0 1-8.388086 8.453447z" fill="#FFFFFF" p-id="33446"></path></svg>