<?xml version="1.0" standalone="no"?><!DOCTYPE svg PUBLIC "-//W3C//DTD SVG 1.1//EN" "http://www.w3.org/Graphics/SVG/1.1/DTD/svg11.dtd"><svg t="1584417737660" class="icon" viewBox="0 0 1024 1024" version="1.1" xmlns="http://www.w3.org/2000/svg" p-id="12991" xmlns:xlink="http://www.w3.org/1999/xlink" width="200" height="200"><defs><style type="text/css"></style></defs><path d="M21.333333 21.333333m490.666667 0l0 0q490.666667 0 490.666667 490.666667l0 0q0 490.666667-490.666667 490.666667l0 0q-490.666667 0-490.666667-490.666667l0 0q0-490.666667 490.666667-490.666667Z" fill="#FFFFFF" p-id="12992"></path><path d="M903.125333 766.208c7.808-15.616 15.616-27.349333 23.466667-43.008 3.882667-3.925333 3.882667-7.808 3.882667-11.733333 3.925333-11.733333 11.733333-23.466667 15.658666-35.2 3.925333-3.925333 3.925333-7.808 3.925334-15.658667 3.882667-11.733333 7.808-23.466667 11.733333-31.274667 0-3.925333 3.882667-11.733333 3.882667-15.658666 3.925333-11.733333 3.925333-23.466667 7.850666-35.2 0-3.882667 3.882667-11.733333 3.882667-15.616C981.333333 547.2 981.333333 527.658667 981.333333 512c0-258.133333-211.2-469.333333-469.333333-469.333333S42.666667 253.866667 42.666667 512c0 15.658667 0 35.2 3.925333 50.858667 0 3.882667 0 11.733333 3.882667 15.616 0 11.733333 3.925333 23.466667 3.925333 35.2 0 3.925333 3.925333 11.733333 3.925333 15.658666 3.882667 11.733333 7.808 23.466667 11.733334 31.274667 0 3.925333 3.882667 7.850667 3.882666 15.658667 3.925333 11.733333 7.850667 23.466667 15.658667 35.2 0 3.925333 3.925333 7.808 3.925333 11.733333 7.808 15.658667 15.616 27.392 23.466667 43.008A463.530667 463.530667 0 0 0 508.074667 981.333333c164.266667 0 308.992-86.058667 395.050666-215.125333-3.925333 0-3.925333 0 0 0zM508.074667 265.6c93.866667 0 172.117333 78.208 172.117333 172.074667s-78.250667 172.117333-172.117333 172.117333c-93.866667 0-172.074667-78.250667-172.074667-172.117333 0-93.866667 78.208-172.074667 172.074667-172.074667z m-285.482667 539.733333c50.816-113.408 160.341333-187.733333 285.482667-187.733333 125.184 0 234.666667 74.325333 285.525333 187.733333-74.325333 70.4-176 117.333333-285.525333 117.333334-109.482667-3.925333-211.2-46.933333-285.482667-117.333334z" fill="#EB5640" p-id="12993"></path></svg>