<?xml version="1.0" standalone="no"?><!DOCTYPE svg PUBLIC "-//W3C//DTD SVG 1.1//EN" "http://www.w3.org/Graphics/SVG/1.1/DTD/svg11.dtd"><svg t="1584420954453" class="icon" viewBox="0 0 1024 1024" version="1.1" xmlns="http://www.w3.org/2000/svg" p-id="24993" xmlns:xlink="http://www.w3.org/1999/xlink" width="200" height="200"><defs><style type="text/css"></style></defs><path d="M1004.910617 650.42963l-126.419753 218.959012a511.241481 511.241481 0 0 0 126.419753-218.959012z" fill="#FF2E6D" p-id="24994"></path><path d="M878.490864 869.388642l126.419753-218.959012a508.839506 508.839506 0 0 0 11.757037-52.337778L838.795062 906.05037a515.034074 515.034074 0 0 0 39.695802-36.661728z" fill="#FF2F6D" p-id="24995"></path><path d="M838.795062 906.05037l177.872592-307.958518q3.413333-20.35358 5.30963-41.08642l-216.051358 374.202469c11.251358-8.343704 22.249877-16.308148 32.869136-25.157531z" fill="#FF306D" p-id="24996"></path><path d="M805.925926 931.207901l216.051358-374.202469q1.517037-17.445926 1.896296-35.144691L776.090864 950.676543c10.24-6.194568 20.35358-12.768395 29.835062-19.468642z" fill="#FF316C" p-id="24997"></path><path d="M748.910617 965.846914c9.228642-4.803951 18.330864-9.860741 27.306667-15.170371L1024 521.734321v-9.734321-21.744198z" fill="#FF326C" p-id="24998"></path><path d="M1021.471605 461.684938L723.120988 978.362469q12.641975-5.941728 25.28395-12.641975L1024 490.255802c-1.011358-9.860741-1.517037-19.089383-2.528395-28.570864z" fill="#FF336C" p-id="24999"></path><path d="M1018.311111 435.26321L698.721975 988.728889q12.641975-4.803951 24.399013-10.36642l298.350617-516.677531q-1.264198-13.274074-3.160494-26.421728z" fill="#FE346C" p-id="25000"></path><path d="M1013.88642 410.737778L675.334321 997.199012q11.883457-3.919012 23.387654-8.470123l319.589136-553.465679q-1.896296-12.389136-4.424691-24.525432z" fill="#FE356B" p-id="25001"></path><path d="M1008.70321 387.729383L652.831605 1004.278519q11.377778-3.286914 22.502716-6.953087l338.552099-586.587654c-1.517037-7.711605-3.286914-15.42321-5.18321-23.008395z" fill="#FE366B" p-id="25002"></path><path d="M1002.761481 366.617284l-371.674074 643.350123q10.998519-2.654815 21.744198-5.688888l355.871605-616.549136c-1.769877-7.332346-3.792593-14.538272-5.941729-21.112099z" fill="#FE386B" p-id="25003"></path><path d="M1002.761481 366.617284c-2.022716-6.953086-4.298272-13.779753-6.573827-20.60642L609.848889 1014.518519c7.079506-1.390617 14.159012-2.907654 21.112099-4.551112z" fill="#FE396B" p-id="25004"></path><path d="M996.187654 345.505185q-3.413333-9.860741-7.205926-19.595062L802.891852 648.406914v11.377777a12.641975 12.641975 0 0 1-10.998519 11.883457h-2.528395l-25.28395 44.120494a11.757037 11.757037 0 0 1-4.298272 7.332346L589.368889 1018.184691c6.953086-1.011358 13.779753-2.275556 20.60642-3.666172z" fill="#FE3A6B" p-id="25005"></path><path d="M759.656296 723.247407a11.757037 11.757037 0 0 1-7.332345 2.781235h-12.641976L568.888889 1020.713086c6.700247-0.758519 13.400494-1.517037 19.974321-2.528395zM765.471605 684.310123l-1.264198 30.087902a11.377778 11.377778 0 0 1 0 1.390617l25.283951-44.120494-12.641975 1.137778a12.641975 12.641975 0 0 0-11.377778 11.504197zM803.018272 616.043457v32.363457l186.089876-322.370371c-2.401975-6.320988-4.93037-12.641975-7.711605-18.710123z" fill="#FE3B6A" p-id="25006"></path><path d="M726.407901 725.902222a11.757037 11.757037 0 0 1-4.677531-1.011358L549.925926 1022.482963c6.573827 0 12.641975-1.011358 19.468642-1.769877L739.555556 725.902222zM803.144691 583.68v32.363457L981.270123 307.2c-2.654815-6.068148-5.30963-12.641975-8.090864-17.951605z" fill="#FE3C6A" p-id="25007"></path><path d="M803.397531 551.442963v32.363457L973.432099 289.374815c-2.781235-5.688889-5.688889-11.377778-8.722963-16.940247zM721.73037 724.890864a11.883457 11.883457 0 0 1-7.079506-8.849383l-1.517037-8.090864L530.962963 1024c6.447407 0 12.641975 0 19.089383-1.011358z" fill="#FE3D6A" p-id="25008"></path><path d="M713.133827 707.950617l-4.298271-25.28395L512 1024h18.710123zM803.523951 519.079506v32.363457l160.932345-279.008395c-2.907654-5.436049-5.941728-10.872099-9.102222-16.308148z" fill="#FE3E6A" p-id="25009"></path><path d="M708.835556 682.666667v-1.264198a12.641975 12.641975 0 0 0-3.539754-6.573827l-6.573827-6.320988L493.795556 1024h18.204444zM803.77679 486.842469v32.363457l151.703704-262.953086q-4.551111-7.964444-9.481482-15.67605z" fill="#FD3F6A" p-id="25010"></path><path d="M698.469136 669.013333l-8.849383-8.470123a11.630617 11.630617 0 0 0-3.539753-2.022716l-210.236049 364.088889 17.951605 1.011358zM803.90321 455.111111v32.363457L945.999012 240.197531c-3.160494-5.05679-6.320988-10.11358-9.734321-15.170371z" fill="#FD4069" p-id="25011"></path><path d="M686.08 658.520494a11.883457 11.883457 0 0 0-6.700247-1.137778l-12.641975 1.896296-208.466173 361.939753c5.815309 0 11.757037 1.011358 17.698765 1.390618zM804.02963 422.241975V455.111111l132.235061-229.831111c-3.286914-4.803951-6.700247-9.607901-10.24-14.285432z" fill="#FD4169" p-id="25012"></path><path d="M667.243457 659.279012l-20.227161 2.907655L441.078519 1018.94321c5.688889 0.758519 11.377778 1.643457 17.193086 2.149136zM804.282469 389.878519v32.363456l121.995062-211.247407c-3.413333-4.677531-6.953086-9.228642-10.49284-13.906173z" fill="#FD4269" p-id="25013"></path><path d="M647.016296 662.186667l-19.974321 2.654814-202.271605 351.446914 16.940247 2.654815zM804.408889 357.515062v32.363457l111.249383-192.790124c-3.539753-4.551111-7.079506-8.975802-10.745679-13.400494z" fill="#FD4369" p-id="25014"></path><path d="M627.041975 664.841481l-20.22716 2.401976-199.490371 346.010864c5.562469 1.137778 11.124938 2.149136 16.687408 3.034074zM804.661728 325.278025v32.363456l100.377284-173.82716q-5.436049-6.447407-11.124938-12.641975z" fill="#FD4469" p-id="25015"></path><path d="M606.814815 667.243457l-19.595062 2.022716-196.203457 340.195555c5.436049 1.264198 10.872099 2.654815 16.308148 3.792593zM804.408889 293.546667a11.251358 11.251358 0 0 1 0 1.896296v29.708642l88.493827-154.358519c-3.666173-4.171852-7.585185-8.217284-11.377778-12.641975zM670.024691 526.159012a11.883457 11.883457 0 0 0 18.330865-8.596543l3.539753-29.329383z" fill="#FD4568" p-id="25016"></path><path d="M791.766914 283.433086h1.011358a11.757037 11.757037 0 0 1 11.630617 10.113581l77.874568-135.016297c-3.792593-4.045432-7.711605-7.964444-11.630617-11.883456l-78.885926 136.786172zM587.472593 669.266173l-19.468642 1.643457-193.042963 334.380247 16.055308 4.171851zM657.382716 516.93037a11.883457 11.883457 0 0 1 9.102222 5.18321v0.884939a11.883457 11.883457 0 0 0 3.413334 3.286913l21.870617-37.925926 4.803951-40.327901z" fill="#FD4668" p-id="25017"></path><path d="M791.766914 283.433086l78.885926-136.659753q-5.815309-5.815309-11.883457-11.377777l-85.459753 148.03753zM568.003951 670.90963l-19.215803 1.390617-189.629629 328.691358c5.18321 1.643457 10.49284 3.034074 15.802469 4.551111zM638.672593 516.677531H657.382716l39.822222-68.898766 4.803951-40.327901z" fill="#FD4768" p-id="25018"></path><path d="M773.30963 283.433086l85.459753-148.03753c-4.045432-3.666173-8.090864-7.205926-12.641976-10.872099l-91.275061 158.909629zM548.788148 672.300247l-18.962963 0.884938-186.089876 322.370371c5.18321 1.769877 10.24 3.666173 15.42321 5.183209zM649.165432 466.362469a34.765432 34.765432 0 0 1-9.860741 17.066667l-19.215802 33.248395h18.457284l63.209876-109.100247 4.803951-40.327901z" fill="#FD4868" p-id="25019"></path><path d="M754.852346 283.433086L847.012346 124.649877c-4.045432-3.539753-8.217284-7.079506-12.641976-10.49284l-97.722469 169.402469zM529.825185 673.185185h-18.836543L328.691358 989.993086l15.29679 5.56247zM639.431111 483.429136a34.891852 34.891852 0 0 1-23.766913 9.607901l-13.906173 23.514074h18.457284zM649.165432 466.362469l57.141728-98.986667 4.803951-40.327901L657.382716 419.58716l-7.964444 44.626173c0.25284 0.758519 0 1.390617-0.25284 2.149136z" fill="#FC4967" p-id="25020"></path><path d="M665.979259 373.317531L657.382716 419.58716l53.349136-92.539259 3.919012-33.121975a12.641975 12.641975 0 0 1 11.883457-10.49284h9.355062L834.37037 113.777778l-12.641975-9.987161zM510.988642 673.690864H493.037037L313.394568 984.051358c4.93037 2.149136 9.98716 4.045432 15.043951 5.941728zM615.284938 493.163457l-18.583703 0.12642-13.400494 23.261234h18.457284l13.526913-23.387654z" fill="#FC4A67" p-id="25021"></path><path d="M493.037037 673.817284h-18.330864l-175.470617 303.407407c4.93037 2.275556 9.734321 4.551111 14.664691 6.573828zM674.196543 327.047901l-8.217284 46.26963L821.728395 104.169877c-4.298272-3.286914-8.596543-6.320988-12.641975-9.481482zM596.701235 493.289877l-18.583704 0.252839-13.274074 22.881975 18.457284 0.12642 13.400494-23.261234z" fill="#FC4B67" p-id="25022"></path><path d="M474.200494 673.438025l-17.951605-0.884939-172.057284 297.971358 14.538272 6.953087zM578.117531 493.542716l-18.583704 0.12642-13.147654 22.755555h18.457284l13.274074-22.881975zM682.666667 280.778272l-8.217284 46.269629 134.004938-232.359506c-4.298272-3.160494-8.722963-6.194568-12.641975-9.102222z" fill="#FC4C67" p-id="25023"></path><path d="M456.248889 672.553086l-17.698766-1.390617-168.64395 292.02963 14.285432 7.332345zM559.533827 493.669136l-18.583704 0.12642-13.021234 22.502716 18.457284 0.126419 13.147654-22.755555zM682.666667 248.541235a34.512593 34.512593 0 0 1 2.149135 19.215802l-2.275555 12.641975L795.180247 85.459753l-13.526914-8.596543z" fill="#FC4D67" p-id="25024"></path><path d="M438.550123 671.162469l-17.319506-2.022716-165.230617 286.214321c4.677531 2.654815 9.228642 5.30963 13.906173 7.838025zM672.300247 234.382222a35.144691 35.144691 0 0 1 10.36642 14.159013l99.113086-171.678025-13.779753-8.217284zM540.950123 493.795556l-18.583703 0.252839-12.894815 22.249877h18.457284l13.021234-22.502716z" fill="#FC4E66" p-id="25025"></path><path d="M421.230617 669.139753c-6.194568-0.884938-11.757037-1.769877-16.813827-2.781234L242.220247 947.13679l13.779753 8.217284zM522.36642 494.048395l-18.583704 0.12642-12.641975 21.997037 18.330864 0.12642 12.894815-22.249877zM657.382716 227.555556a34.639012 34.639012 0 0 1 14.411852 6.953086l96.205432-165.862716c-4.677531-2.654815-9.228642-5.30963-13.906173-7.838025z" fill="#FC4F66" p-id="25026"></path><path d="M650.30321 226.544198A35.271111 35.271111 0 0 1 657.382716 227.555556l96.711111-166.747655-14.285432-7.332345-99.998025 173.068642zM404.54321 666.358519c-6.194568-1.137778-11.630617-2.401975-16.308148-3.666173L228.819753 938.540247l13.526914 8.596543zM503.782716 494.174815l-18.583704 0.12642-12.515555 21.870617h18.457284l12.641975-21.997037z" fill="#FC5166" p-id="25027"></path><path d="M639.81037 226.544198l99.998025-173.068642-14.538272-6.953087-103.917037 180.021729zM388.108642 662.692346c-6.573827-1.643457-11.757037-3.413333-15.676049-4.803951L215.545679 929.311605c4.298272 3.160494 8.722963 6.194568 12.641975 9.102222zM485.199012 494.301235l-18.583703 0.252839-12.389136 21.491358 18.457284 0.12642 12.515555-21.870617z" fill="#FC5266" p-id="25028"></path><path d="M621.353086 226.544198l103.917037-180.021729c-4.93037-2.275556-9.734321-4.551111-14.664691-6.573827l-107.70963 186.595556zM466.615309 494.554074l-18.583704 0.12642-12.262716 21.364938h18.457284l12.389136-21.491358zM372.306173 657.382716l-4.930371-1.896296a11.757037 11.757037 0 0 0-11.251358 1.137778l-3.034074 2.022716L202.271605 919.830123c4.298272 3.286914 8.596543 6.320988 12.641975 9.481482z" fill="#FC5366" p-id="25029"></path><path d="M584.438519 226.544198h18.457283l107.70963-186.595556a309.728395 309.728395 0 0 0-15.043951-5.941728l-111.122962 192.537284zM353.09037 659.152593l-26.421728 17.951605a12.641975 12.641975 0 0 0-5.18321 8.217283l-4.171852 30.214321a12.641975 12.641975 0 0 1-11.883457 10.36642h-9.481481L189.62963 910.222222l12.641975 9.987161zM448.031605 494.680494l-18.583704 0.252839-12.136296 20.985679 18.457284 0.12642 12.262716-21.364938z" fill="#FB5465" p-id="25030"></path><path d="M565.854815 226.544198h18.457284L695.308642 34.006914l-15.29679-5.56247-113.777778 198.099754zM282.421728 725.902222a11.883457 11.883457 0 0 1-4.298271-0.758518l-101.135803 174.206419c4.045432 3.539753 8.217284 7.079506 12.641976 10.49284l106.192592-183.940741zM429.82716 494.933333h-5.562469a34.891852 34.891852 0 0 1-12.136296-1.896296l-12.641975 22.881975H417.185185z" fill="#FB5565" p-id="25031"></path><path d="M565.854815 226.544198l113.777778-198.099754c-5.18321-1.769877-10.24-3.666173-15.42321-5.183209L547.397531 226.544198zM278.123457 725.143704a12.641975 12.641975 0 0 1-7.585185-9.607902l-1.011358-7.585185-104.296297 180.653827c4.045432 3.666173 8.090864 7.205926 12.641976 10.872099zM412.128395 493.037037a34.891852 34.891852 0 0 1-13.526914-8.596543l-18.330864 31.604938h18.583704z" fill="#FB5665" p-id="25032"></path><path d="M547.397531 226.544198l117.44395-203.282963c-5.18321-1.643457-10.49284-3.034074-15.802469-4.551112l-120.098765 207.834075zM269.526914 707.950617l-2.907655-22.881975A11.630617 11.630617 0 0 0 265.481481 682.666667l-112.51358 194.939259q5.815309 5.815309 11.883457 11.377778zM398.601481 484.314074a34.765432 34.765432 0 0 1-8.975802-16.434568l-34.891852 60.428642a11.883457 11.883457 0 0 0 15.928889-5.688889 11.883457 11.883457 0 0 1 9.734321-6.700247z" fill="#FB5765" p-id="25033"></path><path d="M528.940247 226.544198l120.098765-207.834075-16.055308-4.171851-122.500741 212.005926zM265.481481 682.666667a11.883457 11.883457 0 0 0-10.11358-7.711605h-3.792592l-109.858766 190.388148c3.792593 4.045432 7.711605 7.964444 11.630617 11.883457zM389.625679 467.753086c0-1.011358 0-1.896296-0.632099-2.907654L385.580247 442.469136l-38.810864 67.255308 1.264197 8.975803a11.630617 11.630617 0 0 0 6.700247 9.228642z" fill="#FB5865" p-id="25034"></path><path d="M510.482963 226.544198l122.500741-212.005926c-5.436049-1.264198-10.872099-2.654815-16.308148-3.792593l-124.649877 215.798519zM252.080988 674.196543l-13.400494-1.137778a11.883457 11.883457 0 0 1-3.919013-1.137777l-104.422716 181.159506c3.666173 4.171852 7.585185 8.217284 11.377778 12.641975zM385.580247 442.848395l-3.792593-25.41037-38.558024 66.749629 3.539753 25.91605 38.810864-67.255309z" fill="#FB5964" p-id="25035"></path><path d="M492.025679 226.544198L616.675556 10.745679c-5.562469-1.137778-11.124938-2.149136-16.813828-3.034074l-126.419753 218.959012zM234.761481 672.047407a11.883457 11.883457 0 0 1-7.205925-10.872098v-8.849383L119.213827 840.312099q5.436049 6.447407 11.124938 12.641975zM381.787654 417.438025L378.121481 391.901235l-38.305185 66.37037 3.413334 25.916049 38.558024-66.749629z" fill="#FB5A64" p-id="25036"></path><path d="M227.555556 620.341728L108.468148 826.911605c3.539753 4.551111 7.079506 8.975802 10.745679 13.400494L227.555556 652.325926zM473.568395 226.544198L599.861728 7.711605 582.921481 5.05679 455.111111 226.544198zM378.121481 391.901235l-3.792592-25.410371-38.052346 65.864692 3.539753 25.916049L378.121481 391.901235z" fill="#FB5B64" p-id="25037"></path><path d="M227.555556 588.357531L97.975309 813.005432c3.413333 4.677531 6.953086 9.228642 10.492839 13.906173L227.555556 620.341728zM436.527407 226.544198H455.111111L582.921481 5.05679c-5.688889-0.758519-11.377778-1.643457-17.193086-2.149136L436.527407 226.544198zM374.328889 366.490864l-3.792593-25.41037-37.799506 65.359012 3.539753 25.91605 38.052346-65.864692z" fill="#FB5C64" p-id="25038"></path><path d="M418.070123 226.544198h18.457284L565.728395 2.781235c-5.815309 0-11.757037-1.011358-17.698765-1.390618L418.070123 226.544198zM227.555556 588.357531V556.246914L87.735309 798.72c3.286914 4.803951 6.700247 9.607901 10.24 14.285432L227.555556 588.357531zM370.536296 341.080494l-3.792592-25.53679-37.546667 64.979753 3.539753 25.916049 37.799506-65.359012z" fill="#FB5D64" p-id="25039"></path><path d="M227.555556 524.389136L78.000988 783.802469c3.160494 5.05679 6.320988 10.11358 9.734321 15.170371L227.555556 556.246914zM418.070123 226.544198L548.156049 1.390617 530.204444 0 399.61284 226.544198zM366.743704 315.543704l-3.792593-25.410371-37.293827 64.474074 3.539753 25.91605 37.546667-64.979753z" fill="#FB5E63" p-id="25040"></path><path d="M227.555556 524.389136v-32.110617L68.645926 767.87358c3.034074 5.30963 6.194568 10.49284 9.481481 15.67605L227.555556 524.389136zM325.657284 354.607407L362.951111 290.765432l-3.413333-23.387654v-2.528395L322.117531 328.691358zM379.259259 229.831111a34.891852 34.891852 0 0 1 14.917531-3.286913h5.562469L530.204444 0H512z" fill="#FA5F63" p-id="25041"></path><path d="M227.555556 492.278519v-31.984198l-168.138272 290.765432c2.907654 5.436049 5.941728 10.872099 9.102222 16.308148L227.555556 492.278519zM318.577778 303.407407l3.539753 25.283951 37.167407-64.347654A35.018272 35.018272 0 0 1 379.259259 229.831111L512 0h-18.710123z" fill="#FA6063" p-id="25042"></path><path d="M227.555556 460.294321v-31.984198L50.567901 734.625185c2.781235 5.688889 5.688889 11.377778 8.722963 16.940247l168.138272-290.765432zM310.613333 284.697284a11.883457 11.883457 0 0 1 6.826667 9.102222l1.264198 8.975803L493.037037 0c-6.447407 0-12.641975 0-19.089383 1.011358z" fill="#FA6163" p-id="25043"></path><path d="M227.555556 428.310123v-31.984197L42.729877 716.8c2.654815 6.068148 5.30963 12.641975 8.090864 17.951605L227.555556 428.310123zM305.556543 283.433086a11.757037 11.757037 0 0 1 5.05679 1.264198L474.074074 1.517037c-6.573827 0-12.641975 1.011358-19.468642 1.769877L292.914568 283.433086z" fill="#FA6263" p-id="25044"></path><path d="M274.330864 283.433086h18.457284L455.111111 3.286914c-6.700247 0.758519-13.400494 1.517037-19.974321 2.528395l-160.300247 278.123456zM227.555556 396.325926v-31.984198L35.018272 698.089877c2.401975 6.320988 4.93037 12.641975 7.711605 18.710123L227.555556 396.325926z" fill="#FA6362" p-id="25045"></path><path d="M227.555556 364.341728v-31.984197L27.812346 678.494815q3.413333 9.860741 7.205926 19.595062L227.555556 364.341728zM255.87358 283.433086h18.457284L434.631111 5.815309c-6.953086 1.011358-13.779753 2.275556-20.60642 3.666172L255.87358 283.433086z" fill="#FA6462" p-id="25046"></path><path d="M227.555556 332.357531v-32.110617L21.238519 657.382716c2.022716 6.953086 4.298272 13.779753 6.573827 20.60642L227.555556 332.357531zM237.163457 283.938765a11.504198 11.504198 0 0 1 2.528395 0h16.181728L414.151111 9.481481c-7.079506 1.390617-14.159012 2.907654-21.112099 4.551112z" fill="#FA6562" p-id="25047"></path><path d="M227.555556 300.246914v-4.803951a11.757037 11.757037 0 0 1 9.481481-11.504198L392.912593 14.032593q-10.998519 2.654815-21.744198 5.688888L15.29679 636.270617c1.769877 7.332346 3.792593 14.538272 5.941729 21.744198L227.555556 300.246914z" fill="#FA6662" p-id="25048"></path><path d="M348.665679 26.800988L10.11358 613.262222c1.517037 7.711605 3.286914 15.42321 5.18321 23.008395L371.168395 19.721481q-11.377778 3.286914-22.502716 7.079507z" fill="#FA6762" p-id="25049"></path><path d="M325.278025 35.271111L5.688889 588.73679q1.896296 12.641975 4.298271 24.525432L348.665679 26.800988q-11.883457 3.919012-23.387654 8.470123z" fill="#FA6861" p-id="25050"></path><path d="M300.879012 45.637531L2.528395 562.315062q1.264198 13.274074 3.286914 26.421728L325.278025 35.271111q-12.389136 4.803951-24.399013 10.36642z" fill="#FA6961" p-id="25051"></path><path d="M275.089383 58.153086L0 533.744198c0 9.607901 1.011358 19.215802 1.896296 28.697283L300.879012 45.637531q-13.147654 5.941728-25.789629 12.515555z" fill="#F96961" p-id="25052"></path><path d="M247.909136 73.323457L0 502.265679v31.478519L275.089383 58.153086c-9.607901 5.05679-18.330864 9.860741-27.180247 15.170371z" fill="#F96A61" p-id="25053"></path><path d="M218.074074 92.792099L2.022716 466.994568Q0 484.440494 0 502.265679L247.909136 73.323457c-10.24 6.194568-20.35358 12.768395-29.835062 19.468642z" fill="#F96B61" p-id="25054"></path><path d="M185.204938 117.94963L7.332346 425.908148Q3.919012 446.261728 2.022716 466.994568l216.051358-374.202469c-11.251358 8.343704-22.249877 16.308148-32.869136 25.157531z" fill="#F96C60" p-id="25055"></path><path d="M145.509136 154.611358l-126.419753 218.959012a508.839506 508.839506 0 0 0-11.757037 52.337778L185.204938 117.94963a514.907654 514.907654 0 0 0-39.695802 36.661728z" fill="#F96D60" p-id="25056"></path><path d="M19.089383 373.57037l126.419753-218.959012a511.241481 511.241481 0 0 0-126.419753 218.959012z" fill="#F96E60" p-id="25057"></path><path d="M362.951111 290.765432l3.792593 25.283951 3.792592 25.28395 3.792593 25.283951 3.792592 25.283951 3.792593 25.28395 3.792593 25.283951 3.286913 22.249876c0 1.011358 0 1.896296 0.632099 2.907655a35.018272 35.018272 0 0 0 34.259753 27.053827H615.664198a35.144691 35.144691 0 0 0 33.627654-26.800988v-2.149136l8.090864-46.14321 8.217284-46.269629 8.217284-46.26963 8.849383-46.269629 2.275555-12.641976a34.512593 34.512593 0 0 0-2.275555-19.595061 35.144691 35.144691 0 0 0-10.36642-14.159013A34.639012 34.639012 0 0 0 657.382716 227.555556a35.271111 35.271111 0 0 0-7.585185-0.884939H394.05037a34.765432 34.765432 0 0 0-34.765432 37.925926v2.528395z" fill="#FFFFFF" p-id="25058"></path><path d="M803.018272 616.043457V295.442963a11.251358 11.251358 0 0 0 0-1.896296 11.757037 11.757037 0 0 0-11.630618-10.113581h-64.474074a12.641975 12.641975 0 0 0-11.883457 10.49284l-3.919012 33.121975-4.803951 40.327901-4.80395 40.327902-4.803951 40.327901-4.80395 40.327901-3.539753 29.329383a12.641975 12.641975 0 0 1-21.744198 5.30963v-0.884939a11.883457 11.883457 0 0 0-9.102222-5.18321H380.397037a11.883457 11.883457 0 0 0-9.734321 6.700247 11.883457 11.883457 0 0 1-15.928889 5.688889 11.630617 11.630617 0 0 1-6.700247-9.228642l-1.264197-8.975802-3.539753-25.283951-3.539753-25.283951-3.539754-25.28395-3.539753-25.283951-3.539753-25.28395-3.539753-25.283951-3.539753-25.283951-3.539753-25.28395-1.264198-8.975803a11.883457 11.883457 0 0 0-6.826666-9.102222 11.757037 11.757037 0 0 0-5.05679-1.264197H240.197531a11.504198 11.504198 0 0 0-2.528395 0 11.757037 11.757037 0 0 0-9.481482 11.504197V661.175309a12.641975 12.641975 0 0 0 10.998519 11.883456l13.400494 1.137778h3.792592A11.883457 11.883457 0 0 1 265.481481 682.666667a11.630617 11.630617 0 0 1 0.758519 2.654814l3.286914 22.629136 1.011358 7.585185a12.009877 12.009877 0 0 0 11.883456 10.49284h23.134815a12.641975 12.641975 0 0 0 11.883457-10.36642l4.171852-30.214321a12.641975 12.641975 0 0 1 5.18321-8.217284l26.421728-17.951605 3.034074-2.022716a11.757037 11.757037 0 0 1 11.251358-1.137777l4.930371 1.896296c3.919012 1.390617 9.228642 3.160494 15.676049 4.80395s10.11358 2.528395 16.308148 3.666173 10.745679 1.896296 16.813827 2.781235l17.319506 2.022716 17.698766 1.390617 17.951605 0.884938h55.751111l18.962963-0.884938 19.215802-1.390617 19.468642-1.643457 19.215803-2.401975 19.847901-2.401976 19.974321-2.654814 20.227161-2.907655 12.641975-1.896296a11.883457 11.883457 0 0 1 6.700247 1.137778 11.630617 11.630617 0 0 1 3.539753 2.022716l8.849383 8.470123 6.573827 6.320988a12.641975 12.641975 0 0 1 3.539753 6.573827v1.264198l4.424691 24.778271 1.517037 8.343704a11.883457 11.883457 0 0 0 7.079506 8.849383 11.757037 11.757037 0 0 0 4.677531 1.011358h25.283951a12.641975 12.641975 0 0 0 11.630617-10.113581 11.377778 11.377778 0 0 0 0-1.390617l1.264198-30.087901a12.641975 12.641975 0 0 1 10.872098-11.377778l12.641976-1.137778h2.528395a12.641975 12.641975 0 0 0 10.998518-11.883456v-44.120494z" fill="#FFFFFF" p-id="25059"></path></svg>