<?xml version="1.0" standalone="no"?><!DOCTYPE svg PUBLIC "-//W3C//DTD SVG 1.1//EN" "http://www.w3.org/Graphics/SVG/1.1/DTD/svg11.dtd"><svg t="1584420566596" class="icon" viewBox="0 0 1058 1024" version="1.1" xmlns="http://www.w3.org/2000/svg" p-id="18195" xmlns:xlink="http://www.w3.org/1999/xlink" width="206.640625" height="200"><defs><style type="text/css"></style></defs><path d="M528.057511 0A511.74562 511.74562 0 0 0 55.545722 315.789693 31.984101 31.984101 0 0 0 4.264547 353.317705l31.984101 55.439109A31.984101 31.984101 0 0 0 95.952304 395.749946 447.777417 447.777417 0 0 1 975.834929 511.74562h63.968202a512.278688 512.278688 0 0 0-511.74562-511.74562zM1053.236454 667.614806l-31.984102-55.439108a31.984101 31.984101 0 0 0-57.997836 6.076979A447.777417 447.777417 0 0 1 80.280094 511.74562h-63.968202A511.74562 511.74562 0 0 0 1002.168505 704.822978a31.984101 31.984101 0 0 0 51.601017-37.208172z m-166.317327 162.372621a481.680565 481.680565 0 0 0 35.71558-45.737265 479.761519 479.761519 0 0 1-35.71558 45.737265z m93.713417-159.920506a467.927401 467.927401 0 0 1-26.44019 62.15577 469.100151 469.100151 0 0 0 26.653417-62.475611z" fill="#1296db" p-id="18196"></path><path d="M548.527336 341.163747a7.569571 7.569571 0 0 0 6.610048-5.117457 42.645468 42.645468 0 0 1 5.650524-8.742321q17.378028-21.962416 29.212146-40.406581 14.286232-24.09469 30.917965-24.09469a66.313703 66.313703 0 0 1 36.355261 13.326709 37.208171 37.208171 0 0 1 19.72353 30.171669 39.447058 39.447058 0 0 1-5.863752 20.256598 41.259491 41.259491 0 0 0-5.863752 12.260572q0 2.345501 6.183593 2.345501a35.928807 35.928807 0 0 1 29.425373 14.606072 58.104451 58.104451 0 0 1 11.514276 37.101558V511.74562q0 42.645468-55.75895 42.645468a88.169506 88.169506 0 0 0-27.61294 3.19841 10.021685 10.021685 0 0 0-6.183593 10.661367v70.57825c0 4.051319 1.066137 6.610048 3.091796 7.462957a42.645468 42.645468 0 0 0 13.753164 0.85291q21.962416 0 25.054212-9.701844a78.147821 78.147821 0 0 1 18.977234-34.329602 41.366104 41.366104 0 0 1 28.892305-10.661367 111.091445 111.091445 0 0 1 39.127217 8.209252 30.065055 30.065055 0 0 1 21.322734 30.171669 204.485021 204.485021 0 0 1-7.889412 42.645468 200.007246 200.007246 0 0 1-15.139141 43.498378A40.299968 40.299968 0 0 1 733.502055 735.634328a58.530905 58.530905 0 0 1-25.374054 4.584388h-117.275037a78.574275 78.574275 0 0 1-50.641494-13.539936 52.347312 52.347312 0 0 1-16.418505-42.645468v-117.275038a17.484642 17.484642 0 0 0-1.066137-7.462957q-1.066137-1.812432-7.462957-1.812432t-7.462957 1.812432a108.959172 108.959172 0 0 0-1.066137 22.282257 249.369376 249.369376 0 0 1-1.812432 33.263465 63.968202 63.968202 0 0 1-12.580413 27.612941 287.110615 287.110615 0 0 1-31.984102 35.822194 254.913287 254.913287 0 0 1-44.564514 34.116374 259.284447 259.284447 0 0 1-44.244673 21.322734 106.613671 106.613671 0 0 1-33.796534 8.209253 35.822193 35.822193 0 0 1-33.476693-20.469825 80.066867 80.066867 0 0 1-10.661367-37.314785q0-30.171669 43.711605-46.057105a139.557295 139.557295 0 0 0 62.15577-38.594149q18.444165-22.815326 18.444165-36.035421 0-5.650525-7.889411-7.143116a172.927374 172.927374 0 0 0-28.146009-1.492591 44.13806 44.13806 0 0 1-31.237806-10.661367 42.645468 42.645468 0 0 1-10.661367-32.730397v-127.936405q0-43.498378 45.524038-43.498378c3.411637 0 5.117456-0.639682 5.117456-2.02566a33.476693 33.476693 0 0 0-7.676185-10.661367 31.984101 31.984101 0 0 1-7.676184-21.322734q0-12.580413 18.124324-28.359236a52.240699 52.240699 0 0 1 31.984101-15.885437q18.444165 0 43.498378 25.374053a203.525498 203.525498 0 0 1 37.314785 49.36213 8.209253 8.209253 0 0 0 8.209253 4.051319z m50.108425 126.870268a8.848935 8.848935 0 0 0 9.168776-4.904229 40.406581 40.406581 0 0 0 2.132274-15.352369 36.355262 36.355262 0 0 0-2.238888-14.286232 8.955548 8.955548 0 0 0-8.955548-4.904228H448.73694q-10.661367 0-10.661367 19.723529t10.661367 19.723529z" fill="#1296db" p-id="18197"></path><path d="M48.295993 511.74562m-31.984101 0a31.984101 31.984101 0 1 0 63.968202 0 31.984101 31.984101 0 1 0-63.968202 0Z" fill="#1296db" p-id="18198"></path></svg>