<?xml version="1.0" standalone="no"?><!DOCTYPE svg PUBLIC "-//W3C//DTD SVG 1.1//EN" "http://www.w3.org/Graphics/SVG/1.1/DTD/svg11.dtd"><svg t="1584417598353" class="icon" viewBox="0 0 1024 1024" version="1.1" xmlns="http://www.w3.org/2000/svg" p-id="4749" xmlns:xlink="http://www.w3.org/1999/xlink" width="200" height="200"><defs><style type="text/css"></style></defs><path d="M734.3616 403.456a249.856 249.856 0 0 0-499.6608 0 242.0736 242.0736 0 0 0 127.6928 216.4224A336.1792 336.1792 0 0 0 154.112 869.888a28.0064 28.0064 0 0 0 22.1696 33.1776h5.5296a27.0336 27.0336 0 0 0 27.648-22.1184 281.9584 281.9584 0 0 1 272.0768-227.6864h5.5296a251.8528 251.8528 0 0 0 247.296-249.856v0.1024z m-444.16 0a194.304 194.304 0 0 1 388.6592 0 196.096 196.096 0 0 1-191.488 194.2528h-8.3968A197.4272 197.4272 0 0 1 290.2528 403.456z m385.8944 249.856a26.1632 26.1632 0 0 0 27.648 27.648h138.8032a27.648 27.648 0 1 0 0-55.3984h-138.8032a27.7504 27.7504 0 0 0-27.648 27.648v0.0512z m166.5536 80.384H620.544a27.7504 27.7504 0 1 0 0 55.552h222.1056a27.7504 27.7504 0 0 0 0-55.552z m0 111.104h-219.3408a27.7504 27.7504 0 0 0 0 55.5008h219.2896a26.1632 26.1632 0 0 0 27.648-27.648c0-15.36-12.288-27.8016-27.648-27.8528z" fill="#323232" p-id="4750"></path></svg>