<?xml version="1.0" standalone="no"?><!DOCTYPE svg PUBLIC "-//W3C//DTD SVG 1.1//EN" "http://www.w3.org/Graphics/SVG/1.1/DTD/svg11.dtd"><svg t="1584418741170" class="icon" viewBox="0 0 1033 1024" version="1.1" xmlns="http://www.w3.org/2000/svg" p-id="40016" xmlns:xlink="http://www.w3.org/1999/xlink" width="201.7578125" height="200"><defs><style type="text/css"></style></defs><path d="M840.436064 438.09965L360.004419 725.300337a18.246549 18.246549 0 0 1-26.092566-6.568757l-185.202476-310.19134a18.246549 18.246549 0 0 1 6.751224-26.092565L635.892246 95.794384a18.246549 18.246549 0 0 1 26.092565 6.568758l185.202476 310.191339a18.246549 18.246549 0 0 1-6.568757 26.092566z" fill="#FDC401" p-id="40017"></path><path d="M180.275908 461.455234L693.368876 154.913204l76.088111 127.725846-513.092968 305.994633z" fill="#FF8F00" p-id="40018"></path><path d="M876.929163 978.015046H98.166436a37.952823 37.952823 0 0 1-37.952823-37.952822V379.710692a37.952823 37.952823 0 0 1 37.952823-37.952822h778.580261a37.952823 37.952823 0 0 1 37.952823 37.952822v560.351532a37.770357 37.770357 0 0 1-37.952823 37.952822z" fill="#FF4810" p-id="40019"></path><path d="M684.975463 770.916711h239.212263a18.246549 18.246549 0 0 0 18.246549-18.246549V567.650151a18.246549 18.246549 0 0 0-18.246549-18.246549H684.975463a111.121486 111.121486 0 0 0 0 222.242971z" fill="#FFE8E3" p-id="40020"></path><path d="M630.600746 659.795225a47.441028 47.441028 0 0 0 94.882057 0 47.441028 47.441028 0 0 0-94.882057 0z" fill="#FF4810" p-id="40021"></path><path d="M98.166436 341.75787a37.952823 37.952823 0 0 0-37.952823 37.952822v560.351532a37.952823 37.952823 0 0 0 37.952823 37.952822h120.24476V341.75787z" fill="#ED2700" p-id="40022"></path><path d="M994.801872 438.829512a38.86515 38.86515 0 1 0 38.86515 39.047616 38.86515 38.86515 0 0 0-38.86515-39.047616z m0 57.659096a18.246549 18.246549 0 1 1 18.246549-18.246549 18.246549 18.246549 0 0 1-18.246549 18.429015zM180.275908 154.913204a38.500219 38.500219 0 1 0 38.500219 38.682685 38.682685 38.682685 0 0 0-38.500219-38.682685z m0 53.097459a14.414774 14.414774 0 1 1 14.414774-14.414774 14.414774 14.414774 0 0 1-14.414774 14.232308z" fill="#FF4810" p-id="40023"></path><path d="M725.117872 61.308406a16.60436 16.60436 0 1 0 16.60436-16.60436 16.60436 16.60436 0 0 0-16.60436 16.60436zM458.535786 2.372051a57.1117 57.1117 0 0 1-39.595012 44.886512 3.284379 3.284379 0 0 0 0 6.386292 54.739648 54.739648 0 0 1 39.412546 41.237202 3.466844 3.466844 0 0 0 6.386292 0 60.578544 60.578544 0 0 1 41.054737-40.872271 3.284379 3.284379 0 0 0 0-6.203827A65.140181 65.140181 0 0 1 464.374681 2.00712a3.284379 3.284379 0 0 0-5.838895 0.364931z m437.004857 148.161981a33.20872 33.20872 0 0 1-22.990652 26.092566 2.00712 2.00712 0 0 0 0 3.64931 31.384065 31.384065 0 0 1 22.808187 23.902979 2.00712 2.00712 0 0 0 3.831775 0 35.21584 35.21584 0 0 1 23.90298-23.538048 2.00712 2.00712 0 0 0 0-3.64931 37.952823 37.952823 0 0 1-24.085445-26.639962 2.00712 2.00712 0 0 0-3.831776 0z" fill="#FDC401" p-id="40024"></path><path d="M0 865.616302a158.380049 158.380049 0 1 0 157.832652-158.380048A158.380049 158.380049 0 0 0 0 865.616302z" fill="#FFE8E3" p-id="40025"></path><path d="M168.05072 946.630981l2.00712 5.656431a18.246549 18.246549 0 0 0 34.303513-12.407654l-2.554517-7.29862a50.907873 50.907873 0 0 0 17.151756-19.523807 48.353356 48.353356 0 0 0 1.64219-36.493099 48.900752 48.900752 0 0 0-62.76813-29.55941l-11.677792 3.64931a12.225188 12.225188 0 0 1-8.210947-21.89586l22.808187-8.393412a18.246549 18.246549 0 1 0 34.668444-11.495326v-0.912328a36.493099 36.493099 0 0 0-46.16377-21.895859l-2.919448-6.568758a18.246549 18.246549 0 1 0-34.668444 11.495326v0.912328l2.736983 7.481085a48.535821 48.535821 0 0 0 43.426787 85.758782l11.312861-4.196706a12.225188 12.225188 0 0 1 15.692032 7.298619 11.860257 11.860257 0 0 1 0 9.305741 11.312861 11.312861 0 0 1-6.751223 6.203826l-22.26079 7.846017a18.447261 18.447261 0 1 0-34.485979 13.137515 36.493099 36.493099 0 0 0 46.711167 21.713394z" fill="#FF4810" p-id="40026"></path><path d="M678.041775 661.802346m-21.89586 0a21.895859 21.895859 0 1 0 43.791719 0 21.895859 21.895859 0 1 0-43.791719 0Z" fill="#FFE8E3" p-id="40027"></path></svg>