<?xml version="1.0" standalone="no"?><!DOCTYPE svg PUBLIC "-//W3C//DTD SVG 1.1//EN" "http://www.w3.org/Graphics/SVG/1.1/DTD/svg11.dtd"><svg t="1584451008384" class="icon" viewBox="0 0 1024 1024" version="1.1" xmlns="http://www.w3.org/2000/svg" p-id="2719" xmlns:xlink="http://www.w3.org/1999/xlink" width="200" height="200"><defs><style type="text/css"></style></defs><path d="M124.716837 40.018237l774.566326 0 0 858.698001-774.566326 0 0-858.698001Z" fill="#FFFFFF" p-id="2720"></path><path d="M939.3014 53.35765a53.35765 53.35765 0 0 0-53.35765-53.35765H138.05625A53.35765 53.35765 0 0 0 84.6986 53.35765v917.271361a53.35765 53.35765 0 0 0 53.35765 53.35765h747.8875a53.35765 53.35765 0 0 0 53.35765-53.35765v-85.238846zM164.735075 80.036475h694.52985v187.472103l-212.483501 50.609731a564.67067 564.67067 0 0 1-261.452485 0L164.735075 265.454309z" fill="#d81e06" p-id="2721"></path><path d="M517.495838 448.097544a146.039888 146.039888 0 1 1 146.039888-146.039888 146.199961 146.199961 0 0 1-146.039888 146.039888z" fill="#FFE41E" p-id="2722"></path><path d="M517.495838 196.089364A106.02165 106.02165 0 1 1 411.514206 302.057656 106.02165 106.02165 0 0 1 517.495838 196.089364m0-80.036475a185.72464 185.72464 0 1 0 72.446349 14.673353 184.977633 184.977633 0 0 0-72.446349-14.673353z" fill="#FFFFFF" p-id="2723"></path><path d="M493.031355 703.493936l43.513164 0 0 173.679151-43.513164 0 0-173.679151Z" fill="#FFE41F" p-id="2724"></path><path d="M393.959539 702.800287l241.643457 0 0 43.513163-241.643457 0 0-43.513163Z" fill="#FFE41F" p-id="2725"></path><path d="M398.525352 623.791682l30.768453-30.768453 116.008953 116.008953-30.768453 30.768453-116.008953-116.008953Z" fill="#FFE41F" p-id="2726"></path><path d="M484.552719 709.03989l116.008953-116.008953 30.768453 30.768453-116.008953 116.008953-30.768453-30.768453Z" fill="#FFE41F" p-id="2727"></path><path d="M393.946199 783.957272l241.670137 0 0 43.513164-241.670137 0 0-43.513164Z" fill="#FFE41F" p-id="2728"></path></svg>