<?xml version="1.0" standalone="no"?><!DOCTYPE svg PUBLIC "-//W3C//DTD SVG 1.1//EN" "http://www.w3.org/Graphics/SVG/1.1/DTD/svg11.dtd"><svg t="1584417761192" class="icon" viewBox="0 0 1024 1024" version="1.1" xmlns="http://www.w3.org/2000/svg" p-id="14728" xmlns:xlink="http://www.w3.org/1999/xlink" width="200" height="200"><defs><style type="text/css"></style></defs><path d="M952.670547 895.412007a128.487218 128.487218 0 0 1-128.346135 128.577916H199.654827A128.487218 128.487218 0 0 1 71.308693 895.412007V291.229835h96.511536l688.338781-11.548734h96.511537z" fill="#EF4108" p-id="14729"></path><path d="M664.627397 466.587175s-27.460994 114.308276-154.305592 114.308276S330.39939 462.6469 330.39939 462.6469c-101.106844-18.230069-157.64122-51.042177-229.100269-92.510797L71.308693 352.712229V126.887124A127.62056 127.62056 0 0 1 199.654827 0.002217h624.669585a127.62056 127.62056 0 0 1 128.346135 126.884907v213.288783l-22.402124 14.1084c-4.93794 3.073616-9.765029 6.147232-14.592118 9.069687-75.369091 47.676316-134.997238 85.275203-251.048908 103.233181z" fill="#FF6D0B" p-id="14730"></path><path d="M505.786962 633.53994a199.825338 199.825338 0 1 1 199.220692-199.81526 199.774951 199.774951 0 0 1-199.220692 199.81526z" fill="#FBE945" p-id="14731"></path><path d="M617.535571 512.147231v-46.819734h-85.073654v-56.05066h85.073654v-46.708883h-23.288938l12.949496-52.291779H559.157026l-12.838645 52.291779h-67.357534l-14.531653-52.291779h-48.270884l14.4208 52.291779h-28.055562v46.708883h83.37057v56.05066h-83.37057v46.819734h83.37057v70.542003h46.567799v-70.542003z" fill="#FF5D24" p-id="14732"></path></svg>