<?xml version="1.0" standalone="no"?><!DOCTYPE svg PUBLIC "-//W3C//DTD SVG 1.1//EN" "http://www.w3.org/Graphics/SVG/1.1/DTD/svg11.dtd"><svg t="1584420183282" class="icon" viewBox="0 0 1024 1024" version="1.1" xmlns="http://www.w3.org/2000/svg" p-id="10583" xmlns:xlink="http://www.w3.org/1999/xlink" width="200" height="200"><defs><style type="text/css"></style></defs><path d="M949.208597 456.227766l0.033769-0.075725L784.260847 253.66328c-0.223081-0.227174-0.420579-0.461511-0.64366-0.685615l-96.338139-112.194268c-49.380664-53.859675-112.959701-79.280648-176.151929-78.871325-62.654992 0.037862-125.563764 25.478278-174.516686 78.871325l-96.338139 112.194268c-0.223081 0.223081-0.420579 0.458441-0.64366 0.685615L135.082558 381.979738l0 0-60.436464 74.176396 0.037862 0.075725c-4.260024 5.365194-7.247054 11.782348-8.473999 18.810415-0.409322 2.347464-0.62524 4.752234-0.62524 7.209192 0 1.458211 0.079818 2.892887 0.223081 4.309142 0 0 0 0.004093 0 0.007163l0 0c2.142803 20.946055 19.730367 37.309744 41.187051 37.548174l0.011256 0.022513 26.750247 0 20.589944 0 44.488237 0 5.436826 0c0 0 4.467755 0.257873 6.705726 1.222851 3.244904 1.408069 7.318686 4.293793 7.803733 10.05296 0.068562 0.799202 0.045025 1.605567 0.045025 2.416026 0 27.269064-15.414061 50.913577-37.984103 62.788022 34.186613-4.024663 77.216639-21.267373 102.793154-77.224826 8.109702-17.73492 7.42511-36.927027 6.243191-60.265572-0.057305-1.064238-0.231267-2.203178-0.461511-3.369747-0.908696-10.154267-5.750981-22.63758-13.922081-28.681226-10.416234-7.708566-16.216333-5.588275-23.864524-9.897418-2.442632-2.298346-4.002151-5.523807-4.002151-9.151427 0-2.846838 0.977257-5.440919 2.570545-7.549953 0.147356-0.189312 0.768503-1.029446 0.768503-1.029446l63.866586-78.376045c0.155543-0.162706 0.298805-0.333598 0.458441-0.496304l69.837578-81.325214c26.136264-31.483038 54.745858-51.993165 84.22117-61.890582 2.877537-0.969071 29.127388-6.231935 33.080419-6.54302 3.335978-0.260943 20.320814 0 25.470091 0.662079 6.387477 0.813528 25.133424 5.358031 28.127617 6.398734 28.942169 10.082636 57.028854 30.4188 82.722026 61.367673l69.833485 81.325214c0.162706 0.158612 0.306992 0.333598 0.465604 0.496304l63.862493 78.376045c0 0 0.62524 0.840134 0.768503 1.029446 1.594311 2.109034 2.574638 4.699022 2.574638 7.549953 0 3.559059-0.988514 7.42511-3.850701 9.064446-7.728008 4.433986-13.536294 2.226714-24.020066 9.984399-9.098215 6.728238-14.111392 21.467941-14.111392 32.050973 0 12.797467 0 33.981952 0 47.267537 0 7.182586-0.88209 20.744463-1.287319 23.5166C709.243293 695.933149 569.69298 820.387649 401.082818 820.3416c-118.559233-0.037862-232.147244-61.917188-281.679357-161.071466 32.342616 130.777509 150.561088 219.111347 310.791395 230.882438 7.973602 0.583285 29.127388 2.233877 39.211047 8.447393 20.866237 12.850679 35.420721 35.507702 17.436114 73.510224 0 0 25.545816-44.310182 80.81356-86.98205 8.420787-6.496971 44.265156-26.238594 46.855144-27.409257 119.225405-53.995775 205.446116-168.015621 222.185358-303.468616 2.908236-23.520693 16.686031-28.730345 21.422915-29.835516 1.003863-0.231267 3.199878-0.280386 3.199878-0.280386l8.220219 0 20.589944 0 26.746154 0 0.011256-0.022513c22.914896-0.257873 41.414225-18.890232 41.414225-41.86448C958.307835 472.414423 954.887946 463.380676 949.208597 456.227766z" p-id="10584" fill="#1296db"></path><path d="M729.128179 383.940392c-18.628266-1.309832-24.837688-1.647523-42.7435-2.855024-9.385764-0.632403-12.619412-4.607948-13.884218-7.454786-28.442796-63.926962-86.080517-112.258737-160.559812-112.258737-93.448322 0-174.005033 72.374354-184.073342 162.983002-3.115967 28.067242 0.86674 49.955762 0.783853 72.226998 0.004093 0.62524 0.045025 1.238201 0.045025 1.862417 0 76.800153-62.257949 139.062196-139.062196 139.062196-2.76395 0-5.509481-0.102331-8.231475-0.260943-17.258059-0.200568-28.760021-2.850931-28.760021-2.850931 36.518728 71.28351 111.055328 109.002576 156.240437 126.124536 22.236444 8.42795 68.315922 16.557094 82.84687 17.276479 184.202279 9.079796 267.662109-147.982356 267.662109-147.982356 35.087123-58.694797 38.400588-121.292484 34.284851-166.561503-0.503467-5.54325-3.543709-27.02654 4.922103-35.8106 9.447163-9.80225 25.363667-24.735357 34.087353-32.868595C736.477564 391.044184 737.723951 384.54619 729.128179 383.940392zM572.051701 425.316755c-12.033058 0-21.790282-9.761318-21.790282-21.790282 0-12.036128 9.757225-21.793352 21.790282-21.793352 12.040221 0 21.790282 9.757225 21.790282 21.793352C593.841983 415.556461 584.091922 425.316755 572.051701 425.316755z" p-id="10585" fill="#1296db"></path></svg>