<?xml version="1.0" standalone="no"?><!DOCTYPE svg PUBLIC "-//W3C//DTD SVG 1.1//EN" "http://www.w3.org/Graphics/SVG/1.1/DTD/svg11.dtd"><svg t="1584419793658" class="icon" viewBox="0 0 1024 1024" version="1.1" xmlns="http://www.w3.org/2000/svg" p-id="2627" xmlns:xlink="http://www.w3.org/1999/xlink" width="200" height="200"><defs><style type="text/css"></style></defs><path d="M973.691065 531.398784h-34.619369c-18.588725-110.338579-89.788659-205.158131-189.894912-263.482388-37.689067 50.308935-98.059788 83.137647-166.190024 83.137647a206.607711 206.607711 0 0 1-195.7785-139.15963l-103.943375-77.680407c-12.875677-9.63544-24.642851-4.09293-26.433509 12.193522l-16.030643 150.585727a387.719877 387.719877 0 0 0-122.70264 155.616621H49.456241a48.944625 48.944625 0 0 0-49.456241 48.603547v148.283454c0 26.945124 22.255309 48.859355 49.456241 48.859356h58.409526c28.735781 86.122075 90.470814 159.539012 172.073612 208.398368v94.393205c0 12.108252 9.976518 21.914231 22.170039 21.914231h108.80373a22.170039 22.170039 0 0 0 22.17004-21.914231v-37.518528a468.64052 468.64052 0 0 0 168.15122 0v37.518528a22.170039 22.170039 0 0 0 22.170039 21.914231h108.80373a22.170039 22.170039 0 0 0 22.170039-21.914231v-94.393205c102.834874-61.564493 174.034807-161.841286 187.677909-277.637106h31.805479c27.371471 0 49.456241-21.914231 49.456241-48.859355a49.456241 49.456241 0 0 0-49.62678-48.859356z m-685.821634-42.890499a63.952036 63.952036 0 0 1-62.161379-48.1772 45.192772 45.192772 0 0 0 36.751104 18.759264c24.983929 0 45.278041-19.953035 45.278041-44.681156s-20.208843-44.681156-45.278041-44.681156c-2.131735 0-4.263469 0.426347-6.395204 0.596886a63.781497 63.781497 0 0 1 96.013323 54.828212 63.696228 63.696228 0 0 1-64.207844 63.35515z m0 0" fill="#ff1e2a" p-id="2628"></path><path d="M583.072029 0C500.872346 0 434.021151 65.913232 434.021151 147.089683c0 81.176451 66.936464 147.089683 149.050878 147.089682s148.965609-65.913232 148.965609-147.089682C732.037638 65.913232 665.186444 0 583.072029 0z m12.022983 220.591889v25.069199h-30.526438v-22.852195a141.461904 141.461904 0 0 1-47.495046-10.488134l8.612208-33.937213c12.022983 5.371971 28.735781 10.743942 47.324506 10.743942 13.643101 0 23.36381-3.410775 23.363811-11.426097 0-7.588975-8.100591-12.278791-27.968357-17.90657-29.247398-8.526938-49.967857-21.061537-49.967858-45.874928 0-22.340578 16.883337-39.99134 47.580315-45.619119V45.53385h30.3559v20.890998c18.503456 0.511616 31.208594 3.922392 40.844033 7.844783l-8.612207 32.658173c-7.247897-2.72862-20.464652-8.27113-40.502956-8.27113-15.945374 0-20.805729 5.116163-20.805729 10.573403 0 6.054126 9.123824 10.743942 31.72021 17.821301 33.766675 10.317595 46.216005 24.301774 46.216004 46.642352-0.085269 22.937464-17.821301 41.526189-50.138396 46.898159z m0 0" fill="#ff1e2a" p-id="2629"></path></svg>