<?xml version="1.0" standalone="no"?><!DOCTYPE svg PUBLIC "-//W3C//DTD SVG 1.1//EN" "http://www.w3.org/Graphics/SVG/1.1/DTD/svg11.dtd"><svg t="1584419188608" class="icon" viewBox="0 0 1025 1024" version="1.1" xmlns="http://www.w3.org/2000/svg" p-id="47569" xmlns:xlink="http://www.w3.org/1999/xlink" width="200.1953125" height="200"><defs><style type="text/css"></style></defs><path d="M624.3 96c-220.9 0-400.7 178.8-400.7 398.6s179.7 398.6 400.7 398.6S1025 714.4 1025 494.6 845.3 96 624.3 96z m115.2 455.6c15.8 0 28.6 12.7 28.6 28.5 0 15.7-12.8 28.5-28.6 28.5H653v84.6c0 15.7-12.8 28.5-28.6 28.5s-28.6-12.7-28.6-28.5v-84.6h-85.1c-15.8 0-28.6-12.7-28.6-28.5 0-15.7 12.8-28.5 28.6-28.5h85.1v-56.9h-85.1c-15.8 0-28.6-12.7-28.6-28.5s12.8-28.5 28.6-28.5h85.1v-17.6l-106-105.6c-11.2-11.1-10.8-29.1 0.4-40.3 11.2-11.2 29.2-11.1 40.4-0.1l96.2 95.5 90.9-95c11-11.4 29-11.8 40.4-1 11.4 10.8 11.7 28.9 0.8 40.3l-106 110.3v13.5h86.5c15.8 0 28.6 12.7 28.6 28.5s-12.8 28.5-28.6 28.5h-86.5v56.9h86.6z m-516.6 69.9V610c-11.6-38-17.9-78.3-17.9-120s6.3-82 17.9-119.9v-74.8c0-17.9-14.2-32.4-31.8-32.4s-31.8 14.5-31.8 32.4v325.5L48.9 514.1c-5.4-5.2-12.7-8.1-20.2-8.1-7.7 0-14.9 2.9-20.3 8.1-5.3 5.1-8.4 12.2-8.4 19.4 0 7.3 3.1 14.4 8.4 19.5l161.5 156.2c5.9 5.7 13.7 8.2 21.5 7.9 7.7 0.3 15.6-2.2 21.5-7.9l36-34.7c-9-17.9-16.7-36.5-23.1-55.7l-2.9 2.7z" fill="#ff5e2a" p-id="47570"></path></svg>