<?xml version="1.0" standalone="no"?><!DOCTYPE svg PUBLIC "-//W3C//DTD SVG 1.1//EN" "http://www.w3.org/Graphics/SVG/1.1/DTD/svg11.dtd"><svg t="1584417641812" class="icon" viewBox="0 0 1024 1024" version="1.1" xmlns="http://www.w3.org/2000/svg" p-id="6361" xmlns:xlink="http://www.w3.org/1999/xlink" width="200" height="200"><defs><style type="text/css"></style></defs><path d="M931.84 404.48c-25.6-10.24-51.2-25.6-56.32-40.96-5.12-15.36 0-40.96 10.24-66.56 15.36-40.96 35.84-97.28-10.24-143.36-20.48-20.48-40.96-30.72-71.68-30.72-25.6 0-51.2 10.24-71.68 15.36-20.48 5.12-40.96 15.36-56.32 15.36-5.12 0-10.24 0-15.36-5.12-20.48-10.24-30.72-30.72-40.96-56.32C604.16 51.2 578.56 0 512 0S419.84 51.2 404.48 92.16c-10.24 25.6-25.6 51.2-40.96 56.32h-15.36c-15.36 0-35.84-5.12-56.32-15.36-20.48-5.12-46.08-10.24-71.68-10.24-25.6 0-51.2 10.24-71.68 30.72-46.08 40.96-25.6 97.28-10.24 138.24 10.24 25.6 20.48 51.2 10.24 66.56-10.24 20.48-30.72 30.72-56.32 46.08C51.2 419.84 0 450.56 0 512c0 66.56 51.2 92.16 92.16 107.52 25.6 10.24 51.2 25.6 56.32 40.96 5.12 15.36 0 40.96-10.24 71.68-15.36 40.96-30.72 97.28 10.24 143.36 20.48 20.48 40.96 30.72 71.68 30.72 25.6 0 51.2-10.24 71.68-15.36 20.48-5.12 40.96-15.36 56.32-15.36 5.12 0 10.24 0 15.36 5.12 20.48 5.12 30.72 30.72 40.96 56.32 15.36 35.84 46.08 87.04 107.52 87.04 61.44 0 87.04-51.2 107.52-92.16 10.24-25.6 25.6-51.2 40.96-56.32 5.12 0 10.24-5.12 15.36-5.12 15.36 0 35.84 5.12 56.32 15.36 20.48 10.24 46.08 15.36 71.68 15.36 25.6 0 51.2-10.24 71.68-30.72 46.08-46.08 25.6-102.4 10.24-143.36-10.24-25.6-15.36-51.2-10.24-71.68 5.12-15.36 30.72-30.72 56.32-40.96 40.96-10.24 92.16-35.84 92.16-102.4s-51.2-92.16-92.16-107.52z m-128 225.28c-20.48 46.08-5.12 92.16 10.24 128 15.36 40.96 15.36 51.2 5.12 56.32-5.12 5.12-10.24 5.12-15.36 5.12-10.24 0-25.6-5.12-46.08-10.24-25.6-10.24-51.2-20.48-81.92-20.48-15.36 0-30.72 0-46.08 5.12-46.08 20.48-66.56 56.32-87.04 92.16-15.36 35.84-20.48 35.84-30.72 35.84-10.24 0-20.48 0-35.84-35.84-15.36-35.84-35.84-66.56-81.92-81.92-15.36-5.12-30.72-10.24-46.08-10.24-30.72 0-56.32 10.24-81.92 15.36-15.36 5.12-35.84 10.24-46.08 10.24-5.12 0-10.24 0-10.24-5.12-10.24-10.24-5.12-20.48 5.12-56.32 10.24-35.84 25.6-81.92 10.24-128-20.48-46.08-66.56-66.56-97.28-81.92-35.84-20.48-46.08-25.6-46.08-35.84 0-10.24 10.24-20.48 46.08-35.84 30.72-15.36 76.8-35.84 92.16-81.92 20.48-46.08 5.12-92.16-10.24-128-10.24-40.96-10.24-51.2-5.12-61.44 5.12 0 10.24-5.12 15.36-5.12 10.24 0 30.72 5.12 46.08 10.24 25.6 10.24 51.2 15.36 81.92 15.36 15.36 0 30.72-5.12 46.08-10.24C440.32 204.8 460.8 158.72 476.16 128c15.36-40.96 25.6-46.08 35.84-46.08 10.24 0 20.48 10.24 35.84 46.08 15.36 30.72 35.84 76.8 81.92 92.16 15.36 5.12 30.72 10.24 46.08 10.24 30.72 0 56.32-10.24 81.92-20.48 15.36-5.12 35.84-10.24 46.08-10.24 5.12 0 10.24 0 10.24 5.12 10.24 10.24 5.12 20.48-5.12 61.44-10.24 35.84-25.6 81.92-10.24 128 20.48 46.08 66.56 66.56 97.28 81.92 35.84 20.48 46.08 25.6 46.08 35.84 0 10.24-10.24 20.48-46.08 35.84-30.72 15.36-76.8 35.84-92.16 81.92z" fill="" p-id="6362"></path><path d="M512 317.44c-107.52 0-194.56 87.04-194.56 194.56 0 107.52 87.04 194.56 194.56 194.56 107.52 0 194.56-87.04 194.56-194.56 0-107.52-87.04-194.56-194.56-194.56z m0 307.2c-61.44 0-112.64-51.2-112.64-112.64 0-61.44 51.2-112.64 112.64-112.64s112.64 51.2 112.64 112.64c0 61.44-51.2 112.64-112.64 112.64z" fill="" p-id="6363"></path></svg>