<?xml version="1.0" standalone="no"?><!DOCTYPE svg PUBLIC "-//W3C//DTD SVG 1.1//EN" "http://www.w3.org/Graphics/SVG/1.1/DTD/svg11.dtd"><svg t="1584420316426" class="icon" viewBox="0 0 1024 1024" version="1.1" xmlns="http://www.w3.org/2000/svg" p-id="13754" xmlns:xlink="http://www.w3.org/1999/xlink" width="200" height="200"><defs><style type="text/css"></style></defs><path d="M221.78 75.58a71.21 71.21 0 0 0-5.64-9.35c-0.57-0.88-1.13-1.76-1.8-2.61-7.44-10.4-19.82-24.33-29.45-30.89C130.72-8.71 67.25-1 33.64 4.23 21.83 6.14 10.58 8.05 10.12 10.66c-0.35 2.34 14.56 6.69 19.82 9.58 39.32 21.52 51.35 53.76 57.69 76a95.52 95.52 0 0 0 3.67 16.12c0.11 0.67 0.14 1 0.14 1h0.25a101.23 101.23 0 0 0 14.32 28c27.33 38 73.7 51.38 103.64 29.9 26.84-19.26 31.21-60.03 12.13-95.68zM353.74 651.56c-50.81-16.08-82.38-59.6-70.46-97.33 6.56-20.66 25-35 48.53-41.3-13.19-20.13-26.81-40.52-38.81-59.88l-2.75-4.33c-42.85-65.84-80.05-125.94-111.16-179 1.52 3.32 3.14 6.81 4.94 10.79 0.57 1.31 1.13 2.44 1.73 3.81 5.82 13.12 12.63 29.38 19.61 47.58 0.7 1.83 1.41 3.8 2.11 5.71q4.08 10.95 8.11 22.71c0.85 2.54 1.73 5.08 2.58 7.65 2.72 8.14 5.29 16.54 7.75 25 0.6 2 1.21 4 1.77 6 3 10.76 5.85 21.69 8.21 32.62 11.89 54.31 14.57 109.18-7.08 146.28L219.35 594c-13.76 14.84-12.95 44 1.55 64.85 0 0 39.07 55.86 83.12 97.61 102 96.63 224.07 152.35 338.5 164.34-94.33-103.57-190.22-234-215.74-269.36-20.92 7.67-46.94 8.37-73.04 0.12zM1012.88 573.8c-0.22-3.35-0.81-6.77-1.13-10.15-1-9.95-2-19.9-3.6-29.91-0.81-5-2-10-3-15-1.66-8.46-3.35-17-5.47-25.46-1.37-5.54-3.1-11-4.69-16.57-2.32-8-4.69-16.05-7.4-24.05-2-5.75-4.13-11.46-6.31-17.21-3-7.8-6.07-15.59-9.42-23.35-2.5-5.82-5.15-11.6-7.9-17.38q-5.44-11.53-11.5-23c-3-5.71-6.06-11.39-9.27-17.07-4.34-7.65-9-15.2-13.75-22.78-3.46-5.5-6.88-11-10.55-16.44-5.22-7.75-10.79-15.37-16.43-23-3.7-5-7.3-10.08-11.18-15.05-6.53-8.33-13.54-16.4-20.56-24.51-3.53-4.06-6.84-8.22-10.51-12.24q-16.39-18-34.38-35.16C649.05 38 412.31-6.13 259.41 87.74a120.2 120.2 0 0 1 4.76 29c6.49 7.12 13 14.28 19.71 21.72a82.26 82.26 0 0 1 11-11c3.21-2.36 9.28-2.11 13.58 0.71l4.16 2c25.92 12.45 64.15-6.32 64.15-6.32 3.77-1.79 11.52-1.09 17.24 1.56a90.39 90.39 0 0 1 9.52 5.85c44.12 29.34 60.9 81.64 37.52 116.8-9.45 14.21-24.08 23.17-41 27.19a6104.81 6104.81 0 0 1 47.83 59.56l3.55 4.3c46.13 56.11 93.53 118 141 183.91 34.53 48 83.79 118.88 130.41 193.18a61.52 61.52 0 0 1 7.92-18.2c5.08-7.69 13.58-14.21 13.58-14.21 3.17-2.47 9.27-2.19 13.57 0.63l4.2 2.05c25.88 12.41 64.11-6.35 64.11-6.35 3.77-1.83 11.53-1.13 17.25 1.59a82.67 82.67 0 0 1 9.55 5.75c44.12 29.37 60.9 81.63 37.53 116.79-20.18 30.36-63.7 37.88-103.61 20.56 13.85 25.46 26.34 50.19 36.74 73.46 40.1-16 76.46-39.25 106.57-71.06 13.9-14.67 25.46-30.82 35.87-47.64 0.07 0.17 0.21 0.42 0.31 0.63 1.7-2.71 3-5.64 4.55-8.43 2.72-4.73 5.33-9.52 7.8-14.42 3.06-6.13 5.89-12.38 8.57-18.69 2.08-5 4.16-9.94 6-15 2.39-6.67 4.44-13.47 6.41-20.31 1.45-5 3-10.06 4.2-15.17 1.77-7.4 3.07-15 4.34-22.53 0.81-4.83 1.8-9.56 2.43-14.46 1.13-8.92 1.69-18 2.19-27.09 0.21-3.73 0.67-7.4 0.77-11.17a390.65 390.65 0 0 0-0.81-39.13zM685.59 228.31c-23.42 35.23-78.12 39.88-122.24 10.58s-60.93-81.71-37.52-116.83c5.12-7.69 13.62-14.21 13.62-14.21 3.13-2.51 9.24-2.19 13.5 0.63l4.23 2c25.93 12.42 64.12-6.34 64.12-6.34 3.77-1.84 11.57-1.13 17.24 1.51a102.13 102.13 0 0 1 9.56 5.82c44.12 29.45 60.9 81.71 37.49 116.84z m68.09 163.28c-44.12-29.34-61-81.64-37.59-116.83 5.11-7.69 13.61-14.18 13.61-14.18 3.18-2.43 9.27-2.12 13.58 0.63l4.19 2.05c25.85 12.41 64.12-6.32 64.12-6.32 3.81-1.86 11.53-1.16 17.21 1.59a93.87 93.87 0 0 1 9.59 5.75c44.11 29.38 60.9 81.67 37.48 116.83S797.76 421 753.68 391.59z m206.87 220.23C937.09 647 882.36 651.7 838.28 622.4s-61-81.71-37.52-116.87c5.08-7.69 13.61-14.18 13.61-14.18 3.14-2.5 9.24-2.19 13.51 0.64l4.16 2.08c25.92 12.34 64.14-6.32 64.14-6.32 3.78-1.9 11.54-1.16 17.25 1.52a86.58 86.58 0 0 1 9.59 5.78c44.08 29.31 60.9 81.61 37.53 116.77z" fill="#ff1e2a" p-id="13755"></path><path d="M427.83 358.58l-0.1 0.07c-63.41-80.4-121-149.14-169.66-203-6.07 16.2-16.19 30.35-30.47 40.57-13.4 9.66-29.45 14.56-46.45 15.41 35.48 63.23 82.17 139.58 138 225.1l-0.11 0.07c36.89 59.2 80.3 123.85 128.23 190.6 173.73 241.71 341.46 418.28 374.73 394.44s-80.72-239.17-254.4-480.91c-47.97-66.68-95.44-128.4-139.77-182.35z m-115.17 41a9.61 9.61 0 0 1-11.53-6.52 8.87 8.87 0 0 1 5.87-11.38c0.42-0.11 35.41-17.25 73.28-53 3.6-3.49 8.89-4.3 12.87-0.95a9 9 0 0 1 1.59 1.8c2.43 3.38 3 8.57-0.18 11.35-43.75 37.94-80.18 58.18-81.9 58.71z m105.9-27.26c-46.45 37.7-83.05 60.16-84.81 60.83-4.59 1.94-8.72 0.53-9.24-3.06s2.78-8.08 7.33-10c0.39-0.15 35.23-19.82 75.93-54.81 4-3.35 8.92-5 11.88-3a4 4 0 0 1 1.09 1.09c1.63 2.23 1.2 6.21-2.18 8.96z" fill="#ff1e2a" p-id="13756"></path></svg>