<?xml version="1.0" standalone="no"?><!DOCTYPE svg PUBLIC "-//W3C//DTD SVG 1.1//EN" "http://www.w3.org/Graphics/SVG/1.1/DTD/svg11.dtd"><svg t="1584420738336" class="icon" viewBox="0 0 1024 1024" version="1.1" xmlns="http://www.w3.org/2000/svg" p-id="21857" xmlns:xlink="http://www.w3.org/1999/xlink" width="200" height="200"><defs><style type="text/css"></style></defs><path d="M512 512m-435.2 0a435.2 435.2 0 1 0 870.4 0 435.2 435.2 0 1 0-870.4 0Z" fill="#F8125B" p-id="21858" data-spm-anchor-id="a313x.7781069.0.i29" class="selected"></path><path d="M274.7904 492.6976v-44.5952c16.2304-31.0784 23.7056-78.336 22.272-141.9264h40.6016c0 18.9952-0.7168 35.7888-1.9968 50.688h24.2688V277.8624h58.7264v79.0528h36.5056v40.5504h-36.4544v127.744l36.5056-12.1344v42.5472l-36.5056 12.1344v178.432H359.936v-162.2016a907.776 907.776 0 0 1-60.8256 10.0864 158.1568 158.1568 0 0 1-20.2752 1.9968v-52.6848a1307.4944 1307.4944 0 0 0 81.1008-8.0896V397.4656h-28.3648c-6.7584 37.8368-25.7024 69.632-56.7808 95.232zM479.5392 363.008v-42.5984h93.2864v-42.5472h62.8736v42.5472h93.184v42.5984h-93.184v64.9216h113.5104v44.544H461.3632v-44.544h111.5136V363.008H479.5392z m-14.1824 208.7936v-42.5984h168.2944v-34.4064h62.8224v34.4064h50.688v42.5984h-50.688v107.52c-1.3312 40.4992-22.272 61.3888-62.8224 62.8224h-58.7776v-42.5984h32.4096c17.664 0 26.4192-8.0896 26.4192-24.32v-103.424H465.3568z m44.6464 109.5168a296.1408 296.1408 0 0 0-26.368-85.1968h52.6848c16.1792 31.1296 26.9824 59.4944 32.4608 85.1968H510.0032z" fill="#FFFFFF" p-id="21859"></path></svg>