<?xml version="1.0" standalone="no"?><!DOCTYPE svg PUBLIC "-//W3C//DTD SVG 1.1//EN" "http://www.w3.org/Graphics/SVG/1.1/DTD/svg11.dtd"><svg t="1584418928312" class="icon" viewBox="0 0 1024 1024" version="1.1" xmlns="http://www.w3.org/2000/svg" p-id="42987" xmlns:xlink="http://www.w3.org/1999/xlink" width="200" height="200"><defs><style type="text/css"></style></defs><path d="M649.309091 244.363636v323.490909c0 13.963636-11.636364 25.6-25.6 25.6-4.654545 0-9.309091-2.327273-11.636364-2.327272l-81.454545-46.545455c-11.636364-6.981818-27.927273-6.981818-39.563637 0l-81.454545 46.545455c-11.636364 6.981818-27.927273 2.327273-34.909091-9.309091-2.327273-4.654545-2.327273-6.981818-2.327273-11.636364v-325.818182H69.818182v553.890909c0 46.545455 39.563636 86.109091 86.109091 86.109091h712.145454c46.545455 0 86.109091-37.236364 86.109091-86.109091V244.363636H649.309091zM228.072727 479.418182c-27.927273 0-48.872727-20.945455-48.872727-48.872727s20.945455-48.872727 48.872727-48.872728 48.872727 20.945455 48.872728 48.872728c0 27.927273-23.272727 48.872727-48.872728 48.872727z m686.545455-302.545455H109.381818c-11.636364 0-20.945455-9.309091-20.945454-20.945454v-18.618182c2.327273-11.636364 11.636364-20.945455 20.945454-20.945455h802.909091c11.636364 0 20.945455 9.309091 20.945455 20.945455v20.945454c0 9.309091-9.309091 18.618182-18.618182 18.618182z" fill="#FC7032" p-id="42988"></path></svg>