<?xml version="1.0" standalone="no"?><!DOCTYPE svg PUBLIC "-//W3C//DTD SVG 1.1//EN" "http://www.w3.org/Graphics/SVG/1.1/DTD/svg11.dtd"><svg t="1584418981425" class="icon" viewBox="0 0 1024 1024" version="1.1" xmlns="http://www.w3.org/2000/svg" p-id="44377" xmlns:xlink="http://www.w3.org/1999/xlink" width="200" height="200"><defs><style type="text/css"></style></defs><path d="M355.746 756.295m-90 0a90 90 0 1 0 180 0 90 90 0 1 0-180 0Z" fill="#F33E1A" p-id="44378"></path><path d="M674.414 756.295m-90 0a90 90 0 1 0 180 0 90 90 0 1 0-180 0Z" fill="#F33E1A" p-id="44379"></path><path d="M830.353 177.705H413.876c-13.346 0-25.813 2.537-37.898 8.521-24.252 12.011-37.159 38.823-37.159 64.932v51.063l-126.883 73.592c-10.46 6.063-20.917 12.131-31.377 18.198-10.029 5.816-19.576 11.905-27.778 20.345-18.653 19.189-31.534 46.72-31.534 73.71v266.695c0 14.438 11.735 26.545 26.043 27.166l0.001 0.028H148.461l102.394-0.038a108.966 108.966 0 0 1-3.417-27.156c0-60.082 48.706-108.787 108.787-108.787 50.69 0 93.281 34.668 105.358 81.592h106.939c12.078-46.924 54.668-81.592 105.359-81.592 60.079 0 108.784 48.705 108.784 108.787 0 9.303-1.17 18.334-3.366 26.953l95.104-0.029v-0.031c0.383 0.019 0.767 0.031 1.152 0.031 14.825 0 27.196-12.373 27.196-27.197v-97.774-205.34-180.921-20.062c-0.001-40.421-31.853-72.686-72.398-72.686zM338.746 476.129c0 13.627-11.371 25-25 25h-112c-11.118 0-21.157-7.632-24.106-18.354-2.889-10.5 1.665-22.97 11.488-28.234l112.001-59.999c0.526-0.282 1.063-0.54 1.602-0.784a24.497 24.497 0 0 1 11.017-2.629c4.097 0 7.984 1.033 11.426 2.84 4.074 2.035 7.634 5.227 10.161 9.542a23.64 23.64 0 0 1 2.162 4.926 24.34 24.34 0 0 1 1.251 7.692c-0.002 20-0.002 40-0.002 60z" fill="#F33E1A" p-id="44380"></path></svg>