<?xml version="1.0" standalone="no"?><!DOCTYPE svg PUBLIC "-//W3C//DTD SVG 1.1//EN" "http://www.w3.org/Graphics/SVG/1.1/DTD/svg11.dtd"><svg t="1584420114735" class="icon" viewBox="0 0 1024 1024" version="1.1" xmlns="http://www.w3.org/2000/svg" p-id="9513" xmlns:xlink="http://www.w3.org/1999/xlink" width="200" height="200"><defs><style type="text/css"></style></defs><path d="M34.62656 372.43904c-13.312 40.82176-16.86016 85.18144-16.86016 129.55136 0 278.61504 220.94336 503.99744 494.23872 503.99744 272.4096 0 494.23872-225.3824 494.23872-503.99744 0-203.19744-118.01088-378.88512-288.37888-458.74176-63.0016-29.28128-120.67328-36.3776-133.09952-3.54816-11.53536 33.72032 33.72032 65.664 66.54976 80.74752s122.45504 57.6768 118.01088 141.97248c-3.54816 84.29568-134.87104 94.05952-212.95616 61.22496-77.19936-31.94368-189.89056-79.86176-216.50432-57.6768s-31.05792 78.08512 31.05792 115.3536c63.0016 37.26848 200.52992 112.6912 220.0576 207.63136 19.51744 94.94528 5.31968 284.83072-267.97568 204.08832-63.0016-18.63168-130.43712-118.01088-149.95456-161.49504-55.90016-125.11232 10.6496-251.11552 35.49184-288.37888 35.49184-54.12352 35.49184-107.3664-27.50976-130.43712-60.3392-22.1952-109.14304 43.4688-146.4064 159.70816z" fill="#049ADD" p-id="9514"></path><path d="M589.73696 121.11872c45.7216 17.93024 69.92896 60.96384 53.79072 95.92832s-66.34496 49.31072-112.06144 31.38048c-45.71648-17.93024-69.92896-60.96384-53.79072-95.92832s66.34496-49.31072 112.06144-31.38048z" fill="#049ADD" p-id="9515"></path></svg>