<?xml version="1.0" standalone="no"?><!DOCTYPE svg PUBLIC "-//W3C//DTD SVG 1.1//EN" "http://www.w3.org/Graphics/SVG/1.1/DTD/svg11.dtd"><svg t="1584421029397" class="icon" viewBox="0 0 1024 1024" version="1.1" xmlns="http://www.w3.org/2000/svg" p-id="27368" xmlns:xlink="http://www.w3.org/1999/xlink" width="200" height="200"><defs><style type="text/css"></style></defs><path d="M512 0C229.229714 0 0 229.229714 0 512s229.229714 512 512 512 512-229.229714 512-512S794.770286 0 512 0z m266.788571 746.313143a21.942857 21.942857 0 0 1-21.942857 21.942857h-490.057143a21.942857 21.942857 0 0 1-21.942857-21.942857V442.287543c0-0.387657-0.058514-0.775314-0.058514-1.1776s0-0.782629 0.058514-1.170286v-70.7584a21.942857 21.942857 0 0 1 21.942857-21.942857H309.394286V310.857143c0-30.383543 23.310629-55.105829 51.931428-55.105829h300.931657c28.650057 0 51.931429 24.722286 51.931429 55.105829v36.388571h42.634971a21.942857 21.942857 0 0 1 21.942858 21.942857v68.498286a14.109257 14.109257 0 0 1 0 6.868114z" fill="#F8125B" p-id="27369" data-spm-anchor-id="a313x.7781069.0.i43" class=""></path><path d="M662.257371 285.001143H361.376914c-12.514743 0-22.674286 11.593143-22.674285 25.848686v36.388571h346.250971V310.857143c0-14.262857-10.181486-25.856-22.696229-25.856z" fill="#F8125B" p-id="27370" data-spm-anchor-id="a313x.7781069.0.i47" class=""></path><path d="M338.651429 310.857143c0-14.255543 10.181486-25.848686 22.674285-25.848686h300.931657c12.514743 0 22.674286 11.593143 22.674286 25.848686v36.388571h29.257143V310.857143c0-30.383543-23.303314-55.105829-51.931429-55.105829H361.376914c-28.642743 0-51.931429 24.722286-51.931428 55.105829v36.388571h29.257143z" fill="#FFFFFF" p-id="27371"></path><path d="M764.584229 455.738514H647.636114V525.897143a14.628571 14.628571 0 0 1-29.257143 0v-70.158629H403.419429V525.897143a14.628571 14.628571 0 0 1-29.257143 0v-70.158629H259.415771a14.628571 14.628571 0 0 1-14.570057-13.450971v304.0256a21.942857 21.942857 0 0 0 21.942857 21.942857h490.057143a21.942857 21.942857 0 0 0 21.942857-21.942857V444.547657a14.628571 14.628571 0 0 1-14.204342 11.190857zM778.788571 437.679543v-3.883886a22.096457 22.096457 0 0 1-0.212114 3.050057c0.080457 0.270629 0.146286 0.548571 0.212114 0.833829zM244.845714 433.795657v6.144a14.043429 14.043429 0 0 1 0.3584-2.230857 21.511314 21.511314 0 0 1-0.3584-3.913143z" fill="#1296db" p-id="27372" data-spm-anchor-id="a313x.7781069.0.i46" class=""></path><path d="M618.378971 455.738514H403.419429h214.959542zM756.853029 455.738514H647.636114h109.216915zM259.415771 426.481371h505.168458a14.628571 14.628571 0 0 1 13.992228 10.364343 22.096457 22.096457 0 0 0 0.212114-3.050057v-64.6144a21.942857 21.942857 0 0 0-21.942857-21.942857h-490.057143a21.942857 21.942857 0 0 0-21.942857 21.942857v64.6144a21.511314 21.511314 0 0 0 0.3584 3.913143 14.628571 14.628571 0 0 1 14.211657-11.227429zM374.162286 455.738514h-107.373715 107.373715z" fill="#1296db" p-id="27373" data-spm-anchor-id="a313x.7781069.0.i48" class="selected"></path><path d="M778.788571 437.679543c-0.065829-0.277943-0.131657-0.5632-0.212114-0.833829a14.628571 14.628571 0 0 0-13.992228-10.364343H259.415771a14.628571 14.628571 0 0 0-14.211657 11.227429 14.043429 14.043429 0 0 0-0.3584 2.230857c0 0.387657-0.058514 0.775314-0.058514 1.170286s0 0.789943 0.058514 1.1776a14.628571 14.628571 0 0 0 14.570057 13.450971h114.746515V525.897143a14.628571 14.628571 0 0 0 29.257143 0v-70.158629h214.959542V525.897143a14.628571 14.628571 0 0 0 29.257143 0v-70.158629h116.948115a14.628571 14.628571 0 0 0 14.204342-11.190857 14.109257 14.109257 0 0 0 0-6.868114z" fill="#FFFFFF" p-id="27374"></path></svg>