<?xml version="1.0" standalone="no"?><!DOCTYPE svg PUBLIC "-//W3C//DTD SVG 1.1//EN" "http://www.w3.org/Graphics/SVG/1.1/DTD/svg11.dtd"><svg t="1578566443099" class="icon" viewBox="0 0 1024 1024" version="1.1" xmlns="http://www.w3.org/2000/svg" p-id="2649" xmlns:xlink="http://www.w3.org/1999/xlink" width="200" height="200"><defs><style type="text/css"></style></defs><path d="M512 558.545455a186.181818 186.181818 0 1 0 0-372.363637 186.181818 186.181818 0 0 0 0 372.363637z m-115.432727 15.941818A232.634182 232.634182 0 0 1 279.272727 372.363636c0-128.535273 104.192-232.727273 232.727273-232.727272s232.727273 104.192 232.727273 232.727272a232.680727 232.680727 0 0 1-122.647273 205.102546 372.922182 372.922182 0 0 1 247.04 278.597818A23.505455 23.505455 0 0 1 846.266182 884.363636c-11.287273 0-20.619636-8.192-22.900364-19.269818C792.925091 716.753455 661.969455 605.090909 504.622545 605.090909c-157.370182 0-288.325818 111.662545-318.766545 260.002909-2.280727 11.077818-11.613091 19.269818-22.900364 19.269818a23.458909 23.458909 0 0 1-22.807272-28.299636A372.852364 372.852364 0 0 1 396.567273 574.487273z" fill="#21A3DD" p-id="2650"></path></svg>