<?xml version="1.0" standalone="no"?><!DOCTYPE svg PUBLIC "-//W3C//DTD SVG 1.1//EN" "http://www.w3.org/Graphics/SVG/1.1/DTD/svg11.dtd"><svg t="1584459281439" class="icon" viewBox="0 0 1024 1024" version="1.1" xmlns="http://www.w3.org/2000/svg" p-id="3625" xmlns:xlink="http://www.w3.org/1999/xlink" width="200" height="200"><defs><style type="text/css"></style></defs><path d="M751.35987587 416.88960373c0 3.70861033 0.07726307 7.41721988 0 11.1258302-0.15452537 5.56291549-0.77262683 11.04856791-1.313466 16.61148262-0.77262683 7.49448294-2.08609282 14.91170283-3.55408495 22.25166118-1.62251673 8.03532212-3.78587262 15.8388558-6.33554232 23.56512639-5.87196623 18.15673704-13.83002527 35.38632113-23.79691483 51.68875302-4.86755095 7.88079675-10.12141493 15.52980506-15.83885503 22.79249957-7.88079675 10.04415264-16.37969419 19.47020304-25.80574536 28.12362586-10.35320337 9.58057577-21.47903358 18.23399935-33.3002283 25.88300844-13.13466073 8.42163515-26.88742293 15.60706736-41.41281274 21.40177051-9.65783885 3.86313569-19.47020304 7.10816915-29.5143549 9.65783882-10.27594031 2.62693199-20.70640597 4.40397409-31.29139778 5.79470316-14.06181292 1.85430517-28.12362662 1.6997798-42.18543955 1.23620293-6.87638148-0.23178844-13.7527622-1.2362037-20.62914367-2.16335589-9.03973737-1.2362037-18.00221168-3.0905081-26.81015987-5.48565242-10.97130483-2.93598273-21.71082124-6.64459305-32.14128768-11.12583021-14.37086442-6.18101695-27.96910126-13.59823683-40.87197354-22.3289227-16.07064345-10.89404177-30.44150788-23.56512639-43.49890555-37.85872854-11.74393166-12.90287229-21.94260967-27.04194829-30.59603325-42.18543954-9.03973737-15.68433042-16.14790652-32.21854998-21.40177051-49.52539713-3.16777116-10.50772874-5.64017778-21.24724514-7.26269528-32.06402462-0.69536453-4.63576253-1.15894063-9.27152504-1.69977902-13.98455061-0.69536453-6.72185612-1.00441526-13.52097453-1.2362037-20.32009217-0.15452537-5.02207631 0.15452537-10.12141493 0.3863138-15.14349127 0.23178844-4.55850023 0.61810147-9.11699967 1.00441526-13.67549989 0.4635761-4.55850023 1.00441526-9.03973737 1.7770421-13.59823683 2.93598273-17.22958408 7.72627138-33.91832977 14.21633829-50.14349859 4.17218642-10.43046567 9.19426274-20.47461832 14.83444053-30.20971945 6.64459305-11.35761863 14.06181292-22.09713503 22.40618576-32.21855075 6.95364378-8.49889822 14.44812672-16.61148262 22.56071191-24.0287025 15.68433042-14.29360136 32.75938914-26.57837219 51.61148995-36.46799948 13.67549991-7.18543222 27.96910126-12.98013536 42.72627871-17.53863481 9.88962651-3.01324579 20.01104221-5.33112705 30.28698253-7.03090685 7.26269451-1.15894063 14.67991516-1.93156746 22.01987197-2.54966892 9.11699967-0.77262683 18.23399935-0.4635761 27.42826208-0.38631379 3.55408495 0 7.10816915 0.54083918 10.6622541 0.92715218 2.93598273 0.30905074 5.87196623 0.69536453 8.80794896 0.92715297 7.88079675 0.77262683 15.60706736 2.39514434 23.33333873 4.09492336 8.11258441 1.7770421 15.99338116 4.09492335 23.79691406 6.79911841 10.198678 3.47682188 20.08830451 7.6490083 29.66888105 12.43929621 11.28035557 5.64017778 22.01987197 12.20750853 32.29581228 19.54746611 6.10375387 4.40397409 12.05298239 9.03973737 17.69316096 13.98455062 7.49448294 6.49006769 14.5253898 13.44371146 21.16998284 20.70640598 7.95805904 8.65342357 15.06622819 18.00221168 21.63355817 27.73731282a241.52323177 241.52323177 0 0 1 20.16556758 36.62252484c5.17660169 11.74393166 9.4260504 23.87417713 12.59382156 36.31347333 2.24061896 8.57616051 3.86313569 17.30684715 5.17660169 26.11479609 1.6997798 11.20309328 2.62693199 22.40618577 2.24061896 33.68654134z m-48.2891942 0.07726306c0-3.32229653 0.15452537-6.64459305 0-9.96688956-0.30905074-5.94922852-1.08167756-11.74393166-1.85430516-17.69316096-1.00441526-7.6490083-2.70419506-15.06622819-4.71302483-22.40618576-1.46799136-5.64017778-3.32229653-11.12583021-5.33112705-16.53421956-3.78587262-10.12141493-8.42163515-19.77925378-13.75276218-29.05077959-4.09492335-7.10816915-8.65342357-13.83002527-13.59823761-20.32009218-6.95364378-9.19426274-14.75717745-17.61589788-23.25607567-25.41943156-8.42163515-7.6490083-17.38410945-14.60265209-27.04194828-20.62914367-12.90287229-8.18984748-26.57837219-14.75717745-41.02649893-19.62472841-8.88521201-3.01324579-17.92494862-5.33112705-27.19647365-6.95364378-7.80353368-1.39072907-15.60706736-2.47240663-23.4878641-2.78145736-3.0905081-0.07726307-6.18101695 0.07726307-9.27152503-0.54083918-1.15894063-0.23178844-2.47240663 0.07726307-3.70861034 0.15452537-0.8498899 0.07726307-1.6997798 0.30905074-2.5496697 0.30905074-4.79028788 0-9.58057577 0.23178844-14.44812672 0.77262683-7.49448294 0.8498899-14.91170283 1.93156746-22.25166041 3.63134726-11.74393166 2.62693199-23.10155031 6.33554231-34.07285513 11.12583096-11.04856791 4.79028788-21.55629587 10.50772874-31.44592238 17.22958409-11.35761863 7.72627138-21.86534661 16.45695726-31.29139778 26.50110913-3.70861033 3.94039799-7.33995758 7.95805904-10.81677947 12.20750852-7.80353368 9.65783885-14.60265209 19.93377915-20.39735524 30.82782092-5.02207631 9.50331347-9.4260504 19.31567768-12.67108464 29.59161799-3.0905081 9.65783885-5.64017778 19.39293997-7.10816913 29.51435569-1.15894063 7.72627138-2.16335589 15.37527892-2.24061898 23.1788126 0 0.61810147 0 1.2362037-0.15452536 1.85430515-0.61810147 2.93598273-0.54083918 5.94922852-0.23178843 8.88521201 0.54083918 5.25386398 0.38631381 10.58499104 1.08167833 15.91611809 0.69536453 5.02207631 1.15894063 10.04415264 2.1633559 14.98896589 1.39072907 7.18543222 3.16777116 14.21633828 5.25386398 21.16998208 2.5496697 8.49889822 5.71744086 16.84327105 9.50331347 24.87859317 4.94481325 10.50772874 10.7395164 20.55188061 17.53863559 30.05519409 5.94922852 8.34437285 12.59382157 16.22516883 19.70199071 23.56512638 8.03532212 8.26710978 16.84327105 15.60706736 26.19205839 22.32892349 8.34437285 6.02649158 17.22958408 11.12583021 26.34658453 15.76159272 7.03090685 3.55408495 14.37086442 6.49006769 21.86534661 9.11699967 6.18101695 2.16335589 12.43929621 3.94039799 18.85210157 5.40838934 7.18543222 1.62251673 14.44812672 3.0905081 21.86534661 3.78587262 6.64459305 0.69536453 13.2891861 1.2362037 19.93377914 1.31346678 7.88079675 0.15452537 15.76159272-0.61810147 23.64238947-1.31346678 6.87638148-0.69536453 13.7527622-1.85430517 20.47461831-3.3995588 14.75717745-3.39955959 28.89625345-8.42163515 42.41722799-15.14349127 5.87196623-2.93598273 11.512144-6.18101695 17.07505871-9.65783884 9.19426274-5.64017778 17.77042326-12.13024547 25.7284823-19.31567768 6.49006769-5.87196623 12.67108463-12.13024547 18.38852472-18.77483852 4.63576253-5.48565242 8.96247431-11.20309328 13.05739842-17.0750587 3.78587262-5.48565242 7.03090685-11.28035557 10.35320338-17.15232179 5.17660169-9.19426274 9.27152504-18.85210158 12.59382156-28.8189904 4.40397409-13.13466073 7.49448294-26.57837219 8.96247431-40.40839745 0.61810147-7.03090685 1.08167756-14.06181292 0.92715221-21.09271978zM511.45916082 681.20533506c4.79028788 0 9.65783885-0.30905074 14.44812674 0.0772623 5.40838934 0.4635761 10.81677947 0.38631381 16.22516958 0.92715296 4.55850023 0.4635761 9.11699967 0.8498899 13.67549913 1.15894064 3.78587262 0.23178844 7.6490083 0.77262683 11.35761864 1.46799136 2.70419506 0.54083918 5.40838934 0.69536453 8.03532212 1.15894063 4.63576253 0.69536453 9.19426274 1.62251673 13.83002448 2.47240662 8.88521201 1.54525443 17.61589788 3.63134725 26.34658453 5.94922851 18.69757544 4.86755095 36.85431249 11.04856791 54.62473575 18.54305086 9.34878811 3.94039799 18.54305008 8.18984748 27.50552516 12.82560999 17.30684715 8.80794893 33.91832977 18.85210158 49.67992249 30.13245639 6.49006769 4.71302558 12.98013536 9.50331347 19.23841462 14.44812673 5.25386398 4.09492335 10.27594031 8.49889822 15.29801662 12.90287307 9.11699967 7.80353368 17.46137252 16.45695726 25.88300766 24.87859239 2.93598273 2.93598273 5.25386398 6.25827925 6.18101695 10.35320337 1.85430517 8.18984748 0.4635761 15.76159272-5.25386399 22.09713504-3.55408495 3.94039799-7.6490083 6.95364378-12.98013535 8.18984671-7.6490083 1.7770421-14.67991516 0.23178844-21.09271978-4.17218643-2.00883053-1.39072907-3.70861033-3.16777116-5.40839012-5.02207554-4.09492335-4.48123716-8.34437285-8.80794893-12.82561-12.82561-3.63134725-3.16777116-7.10816915-6.56732998-10.66225333-9.73510191-7.80353368-6.87638148-15.8388558-13.36644917-24.26049171-19.47020228-7.18543222-5.25386398-14.5253898-10.198678-22.09713503-14.91170359-12.90287229-8.11258441-26.34658375-15.22075356-40.09934596-21.55629587-16.07064345-7.33995758-32.68212607-13.36644917-49.67992249-18.15673705-11.66666937-3.32229653-23.41060103-6.02649158-35.38632114-7.88079598-5.33112705-0.8498899-10.6622541-1.85430517-16.07064422-2.626932-3.63134725-0.54083918-7.41721988-0.61810147-11.04856713-1.08167832-6.25827925-0.8498899-12.51655927-0.92715219-18.85210159-1.39072907-7.03090685-0.54083918-14.06181292-0.69536453-21.09271977-0.54083839-6.41280461 0.15452537-12.82560999 0.38631381-19.23841462 1.00441526-0.77262683 0.07726307-1.46799136 0.07726307-2.24061896 0.15452537-5.56291549 0.07726307-11.04856791 0.8498899-16.61148262 1.46799136-5.48565242 0.61810147-11.04856791 1.39072907-16.53421955 2.24061818-7.18543222 1.15894063-14.29360136 2.5496697-21.4017705 4.09492413-10.12141493 2.24061896-20.16556758 4.94481325-29.97793179 8.11258442-8.18984748 2.62693199-16.37969419 5.56291549-24.33775323 8.88521123-9.96688957 4.09492335-19.70199071 8.49889822-29.28256725 13.36644916-16.61148262 8.49889822-32.45033842 18.38852472-47.51656661 29.35982955-7.72627138 5.56291549-15.06622819 11.58940629-22.40618576 17.69316097-4.24944872 3.55408495-8.26710978 7.41721988-12.36203391 11.20309249-3.70861033 3.47682188-7.33995758 6.95364378-10.97130483 10.50772875-1.08167756 1.00441526-2.00883053 2.16335589-3.0132458 3.32229652-3.78587262 4.09492335-8.18984748 7.33995758-13.67549989 8.34437283-7.57174523 1.39072907-14.91170283 0.38631381-20.93819441-4.86755095-5.02207631-4.40397409-8.03532212-9.96688957-8.11258441-16.84327028 0-2.24061896-0.23178844-4.48123716 0.30905074-6.64459305 1.00441526-4.40397409 3.16777116-8.26710978 6.18101695-11.66666937 6.79911842-7.72627138 14.37086442-14.60265209 21.94260967-21.55629587 17.77042326-16.37969419 36.93157556-30.98234705 57.25166851-43.88521935 13.36644917-8.49889822 27.19647366-16.14790652 41.49007501-22.94702493 10.89404177-5.25386398 22.09713503-9.88962651 33.37749061-14.13907598 8.57616051-3.24503346 17.22958408-6.10375387 25.96027073-8.73068666 8.88521201-2.62693199 17.84768632-5.02207631 26.88742292-6.95364378 7.49448294-1.62251673 14.98896589-3.0905081 22.48344884-4.40397409 5.71744086-1.00441526 11.512144-1.62251673 17.22958408-2.39514432 6.02649158-0.77262683 12.05298239-1.2362037 18.07947398-1.7770421 4.40397409-0.38631381 8.88521201-0.38631381 13.2891861-0.7726276 6.25827925-0.54083918 12.43929621-0.54083918 18.62031314-0.38631303z" fill="#d81e06" p-id="3626"></path></svg>