<?xml version="1.0" standalone="no"?><!DOCTYPE svg PUBLIC "-//W3C//DTD SVG 1.1//EN" "http://www.w3.org/Graphics/SVG/1.1/DTD/svg11.dtd"><svg t="1582710398352" class="icon" viewBox="0 0 1024 1024" version="1.1" xmlns="http://www.w3.org/2000/svg" p-id="5666" xmlns:xlink="http://www.w3.org/1999/xlink" width="200" height="200"><defs><style type="text/css"></style></defs><path d="M777.764 1023.488c-12.288 0-24.576-3.2-37.888-10.688L533.284 899.712a39.04 39.04 0 0 0-20.48-5.312 58.368 58.368 0 0 0-20.48 4.288L286.756 1012.8a71.424 71.424 0 0 1-38.848 10.688 85.632 85.632 0 0 1-82.88-101.376L204.964 683.2a49.152 49.152 0 0 0-13.312-40.512L25.828 475.2a87.808 87.808 0 0 1-21.44-89.6c10.24-32 35.84-54.4 67.52-59.776l229.12-35.2a45.696 45.696 0 0 0 33.792-24.512l102.272-217.6a82.56 82.56 0 0 1 74.688-48c31.68 0 60.352 18.112 74.688 48l102.272 217.6c7.168 13.888 19.456 22.4 33.792 24.512l229.12 35.2c31.744 5.376 57.28 27.776 67.52 58.688a89.6 89.6 0 0 1-20.48 89.6L834.02 642.688a46.08 46.08 0 0 0-13.312 40.512l38.912 237.888c4.096 25.6-2.048 51.2-18.432 70.4-15.36 20.224-38.912 32-63.424 32zM764.452 958.4c5.12 2.112 9.216 3.2 12.288 3.2 7.168 0 14.336-3.2 19.456-9.6 5.12-6.4 6.08-14.912 5.12-20.288l-38.912-237.824c-6.144-34.176 5.12-71.488 29.696-94.976l164.672-169.6c6.144-6.4 8.192-16 6.144-26.688a23.36 23.36 0 0 0-20.48-17.024l-229.12-35.2a102.016 102.016 0 0 1-77.76-58.688L533.284 75.2a22.144 22.144 0 0 0-21.504-13.888c-9.216 0-17.408 5.312-22.528 14.912L386.98 291.712a104.384 104.384 0 0 1-77.76 58.688L80.1 385.6a26.88 26.88 0 0 0-19.456 17.024v1.088a24.064 24.064 0 0 0 6.144 25.6l165.76 169.6c24.512 24.576 34.752 59.776 29.632 94.976l-38.912 237.824a20.864 20.864 0 0 0 5.12 19.2c5.12 6.4 12.288 9.6 19.456 9.6 5.12 0 8.192-1.024 11.264-2.112l206.656-113.088c13.248-8.512 29.632-12.8 47.04-12.8 15.36 0 31.68 4.288 47.04 12.8L764.452 958.4z" p-id="5667"></path></svg>