<?xml version="1.0" standalone="no"?><!DOCTYPE svg PUBLIC "-//W3C//DTD SVG 1.1//EN" "http://www.w3.org/Graphics/SVG/1.1/DTD/svg11.dtd"><svg t="1582710236848" class="icon" viewBox="0 0 1024 1024" version="1.1" xmlns="http://www.w3.org/2000/svg" p-id="2108" xmlns:xlink="http://www.w3.org/1999/xlink" width="200" height="200"><defs><style type="text/css"></style></defs><path d="M482.304 20.992C217.088 20.992 2.048 207.872 2.048 438.272c0 141.312 81.92 267.264 205.824 344.064V911.36c0 17.408 12.288 27.648 26.112 27.648 5.12 0 9.728-1.024 13.824-3.584l131.072-87.04c33.28 7.168 66.56 8.704 101.376 8.704 265.216 0 480.256-186.88 480.256-417.28C962.56 207.872 747.52 20.992 482.304 20.992z m0 766.464c-29.696 0-59.392-3.584-89.088-8.704l-13.824-3.584c-8.704-2.048-17.408 0-26.112 5.12l-12.288 8.704-62.976 41.984V762.88c0-12.288-7.168-24.576-17.408-29.696l-17.408-10.24C135.168 658.432 70.656 551.936 70.656 440.32c0-192 183.296-347.136 410.112-347.136S890.88 247.808 890.88 440.32c1.536 189.952-183.296 347.136-408.576 347.136zM209.92 450.56c0 31.744 25.6 57.344 57.344 57.344s57.344-25.6 57.344-57.344c0-31.744-25.6-57.344-57.344-57.344S209.92 418.816 209.92 450.56z m218.112 0c0 31.744 25.6 57.344 57.344 57.344S542.72 482.304 542.72 450.56c0-31.744-25.6-57.344-57.344-57.344-31.232 0-57.344 25.6-57.344 57.344z m211.456 0c0 31.744 25.6 57.344 57.344 57.344 31.744 0 57.344-25.6 57.344-57.344 0-31.744-25.6-57.344-57.344-57.344s-57.344 25.6-57.344 57.344z m330.752 90.112c-1.024-1.024-2.048-2.56-3.072-4.096-7.68 28.672-18.432 55.808-31.744 81.92 0.512 1.024 1.024 2.56 2.048 3.584 9.216 20.992 14.336 43.52 14.336 67.584 0 62.976-36.352 122.368-97.28 158.72l-9.728 5.632c-6.144 3.072-9.728 9.728-9.728 16.896v38.4l-35.328-23.552-6.656-5.12c-5.12-3.072-9.728-4.096-14.848-3.072l-7.68 2.048c-16.384 3.072-33.28 4.608-50.176 5.12-37.888 0-75.776-8.192-110.592-24.064-32.768 7.68-66.56 12.288-101.376 14.336 54.784 47.104 129.536 76.288 212.992 76.288 22.016 0 43.008-1.024 63.488-5.632l82.432 54.784c2.048 1.024 5.632 2.048 8.704 2.048 8.704 0 16.384-6.656 16.384-17.408v-81.408c77.824-48.128 129.536-127.488 129.536-216.576-0.512-53.76-19.456-104.448-51.712-146.432z" fill="#F43834" p-id="2109"></path></svg>