<?xml version="1.0" standalone="no"?><!DOCTYPE svg PUBLIC "-//W3C//DTD SVG 1.1//EN" "http://www.w3.org/Graphics/SVG/1.1/DTD/svg11.dtd"><svg t="1582710368320" class="icon" viewBox="0 0 1024 1024" version="1.1" xmlns="http://www.w3.org/2000/svg" p-id="3902" xmlns:xlink="http://www.w3.org/1999/xlink" width="200" height="200"><defs><style type="text/css"></style></defs><path d="M33.032258 442.450581c0 52.108387 39.556129 95.52929 92.903226 108.065032l0 367.929806-61.935484 0C46.938839 918.445419 33.032258 930.981161 33.032258 946.456774S46.938839 974.451613 64 974.451613l929.032258 0C1010.209032 974.451613 1024 961.915871 1024 946.456774s-13.790968-27.994839-30.967742-27.994839l-61.935484 0L931.096774 550.515613C984.443871 537.979871 1024 494.558968 1024 442.450581l0-27.994839L33.032258 414.455742 33.032258 442.450581zM652.387097 554.446452c68.475871 0 123.870968-50.142968 123.870968-111.995871 0 52.108387 39.556129 95.52929 92.903226 108.065032l0 367.929806L404.645161 918.445419 404.645161 554.446452c68.475871 0 123.870968-50.142968 123.870968-111.995871C528.516129 504.303484 584.026839 554.446452 652.387097 554.446452zM373.677419 550.515613l0 367.929806-185.806452 0L187.870968 550.515613C241.218065 537.979871 280.774194 494.558968 280.774194 442.450581 280.774194 494.558968 320.330323 537.979871 373.677419 550.515613zM900.129032 162.452645l-743.225806 0L33.032258 386.444387l990.967742 0L900.129032 162.452645zM294.680774 224.685419l-61.935484 111.995871c-2.77471 4.921806-8.225032 7.762581-13.906581 7.762581-2.295742 0-4.657548-0.429419-6.887226-1.469935-7.613935-3.435355-10.768516-11.875097-6.887226-18.762323l61.935484-111.995871c3.864774-6.887226 13.113806-9.678452 20.744258-6.292645C295.407484 209.374968 298.429935 217.798194 294.680774 224.685419zM418.551742 224.685419l-61.935484 111.995871c-2.77471 4.921806-8.225032 7.762581-13.906581 7.762581-2.295742 0-4.657548-0.429419-6.887226-1.469935-7.613935-3.435355-10.768516-11.875097-6.887226-18.762323l61.935484-111.995871c3.864774-6.887226 13.179871-9.678452 20.744258-6.292645C419.278452 209.374968 422.300903 217.798194 418.551742 224.685419zM544.008258 330.45471c0 7.762581-6.903742 14.005677-15.492129 14.005677-8.538839 0-15.492129-6.226581-15.492129-14.005677l0-111.995871c0-7.762581 6.95329-14.005677 15.492129-14.005677 8.588387 0 15.492129 6.226581 15.492129 14.005677L544.008258 330.45471zM721.820903 342.709677c-2.411355 1.205677-4.954839 1.75071-7.498323 1.75071-5.450323 0-10.768516-2.626065-13.543226-7.267097l-67.749161-111.995871c-4.112516-6.788129-1.32129-15.310452 6.160516-18.977032 7.38271-3.716129 16.929032-1.32129 21.058065 5.516387l67.749161 111.995871C731.978323 330.504258 729.319226 339.043097 721.820903 342.709677zM845.09729 342.973935c-2.196645 1.040516-4.475871 1.469935-6.903742 1.469935-5.681548 0-11.131871-2.840774-13.790968-7.762581l-61.935484-111.995871c-3.864774-6.887226-0.72671-15.310452 6.887226-18.762323 7.514839-3.435355 16.929032-0.660645 20.810323 6.292645l61.935484 111.995871C855.84929 331.098839 852.843355 339.538581 845.09729 342.973935zM296.266323 754.704516l0-64.512C287.182452 685.254194 280.774194 676.731871 280.774194 666.458839c0-15.475613 13.906581-27.994839 30.967742-27.994839 17.176774 0 30.967742 12.535742 30.967742 27.994839 0 10.273032-6.35871 18.811871-15.492129 23.750194l0 64.512c9.133419 4.938323 15.492129 13.460645 15.492129 23.750194 0 15.475613-13.790968 27.994839-30.967742 27.994839-17.061161 0-30.967742-12.535742-30.967742-27.994839C280.774194 768.181677 287.182452 759.642839 296.266323 754.704516zM156.903226 106.446452c0-15.475613 13.906581-27.994839 30.967742-27.994839l681.290323 0c17.176774 0 30.967742 12.519226 30.967742 27.994839s-13.790968 27.994839-30.967742 27.994839l-681.290323 0C170.809806 134.457806 156.903226 121.922065 156.903226 106.446452zM575.801806 704.346839l-21.883871-19.802839 87.585032-79.194839 21.883871 19.802839L575.801806 704.346839zM575.801806 783.541677l-21.883871-19.802839 175.153548-158.389677 21.883871 19.802839L575.801806 783.541677zM729.088 684.544l21.883871 19.802839-87.585032 79.194839-21.883871-19.802839L729.088 684.544z" p-id="3903"></path></svg>