<?xml version="1.0" standalone="no"?><!DOCTYPE svg PUBLIC "-//W3C//DTD SVG 1.1//EN" "http://www.w3.org/Graphics/SVG/1.1/DTD/svg11.dtd"><svg t="1581674902131" class="icon" viewBox="0 0 1024 1024" version="1.1" xmlns="http://www.w3.org/2000/svg" p-id="8895" xmlns:xlink="http://www.w3.org/1999/xlink" width="200" height="200"><defs><style type="text/css"></style></defs><path d="M673.15625001 166.90624999c-63.703125 0-122.765625 32.0625-162.00000002 84.79687501-38.8125-52.734375-98.296875-84.796875-161.99999998-84.79687501-114.75 0-207.984375 102.09375001-207.98437501 227.39062501 0 74.671875 33.328125 127.40625001 60.328125 169.59375C279.546875 686.65625001 476.140625 838.953125 484.578125 845.28125001c8.015625 6.328125 17.296875 9.28125001 26.57812501 9.28124999s18.5625-2.953125 26.57812499-9.28125001c8.4375-6.328125 204.609375-159.046875 283.078125-281.39062499 27-42.1875 60.328125-94.921875 60.328125-169.59375 0-125.296875-93.234375-227.390625-207.98437501-227.39062499z" fill="#d81e06" p-id="8896"></path></svg>