<?xml version="1.0" standalone="no"?><!DOCTYPE svg PUBLIC "-//W3C//DTD SVG 1.1//EN" "http://www.w3.org/Graphics/SVG/1.1/DTD/svg11.dtd"><svg t="1583735611342" class="icon" viewBox="0 0 1024 1024" version="1.1" xmlns="http://www.w3.org/2000/svg" p-id="3320" xmlns:xlink="http://www.w3.org/1999/xlink" width="200" height="200"><defs><style type="text/css"></style></defs><path d="M512 32C246.4 32 32 246.4 32 512s214.4 480 480 480 480-214.4 480-480S777.6 32 512 32z m310.4 342.4L483.2 713.6c-19.2 19.2-48 19.2-67.2 0l-211.2-211.2c-19.2-19.2-19.2-48 0-67.2 19.2-19.2 48-19.2 67.2 0l179.2 179.2 307.2-307.2c19.2-19.2 48-19.2 67.2 0 16 19.2 16 48-3.2 67.2z" fill="#ff5e2a" p-id="3321" data-spm-anchor-id="a313x.7781069.0.i7" class="selected"></path><path d="M755.2 307.2L448 614.4l-179.2-179.2c-19.2-19.2-48-19.2-67.2 0-19.2 19.2-19.2 48 0 67.2l211.2 211.2c19.2 19.2 48 19.2 67.2 0l339.2-339.2c19.2-19.2 19.2-48 0-67.2-16-19.2-44.8-19.2-64 0z" fill="#FFFFFF" p-id="3322"></path></svg>