<?xml version="1.0" standalone="no"?><!DOCTYPE svg PUBLIC "-//W3C//DTD SVG 1.1//EN" "http://www.w3.org/Graphics/SVG/1.1/DTD/svg11.dtd"><svg t="1583597075710" class="icon" viewBox="0 0 1024 1024" version="1.1" xmlns="http://www.w3.org/2000/svg" p-id="4707" xmlns:xlink="http://www.w3.org/1999/xlink" width="200" height="200"><defs><style type="text/css"></style></defs><path d="M824 346.4c-19.2 0-33.6 14.4-33.6 33.6v429.6c0 36-28.8 67.2-67.2 67.2H656V377.6c0-19.2-14.4-33.6-33.6-33.6s-33.6 14.4-33.6 33.6v496.8h-132V377.6c0-19.2-14.4-33.6-33.6-33.6-19.2 0-33.6 14.4-33.6 33.6v496.8h-67.2c-36 0-67.2-28.8-67.2-67.2V377.6c0-19.2-14.4-33.6-33.6-33.6S188 358.4 188 377.6v429.6c0 72 60 132 132 132h398.4c72 0 132-60 132-132V377.6c7.2-16.8-7.2-31.2-26.4-31.2zM888.8 212H161.6c-19.2 0-33.6 14.4-33.6 33.6 0 19.2 14.4 33.6 33.6 33.6h729.6c19.2 0 33.6-14.4 33.6-33.6-2.4-19.2-16.8-33.6-36-33.6z m-528-64.8H692c19.2 0 33.6-14.4 33.6-33.6 0-19.2-14.4-33.6-33.6-33.6H360.8c-19.2 0-33.6 14.4-33.6 33.6 0 19.2 14.4 33.6 33.6 33.6z m0 0" p-id="4708"></path></svg>