<?xml version="1.0" standalone="no"?><!DOCTYPE svg PUBLIC "-//W3C//DTD SVG 1.1//EN" "http://www.w3.org/Graphics/SVG/1.1/DTD/svg11.dtd"><svg t="1583575631887" class="icon" viewBox="0 0 1024 1024" version="1.1" xmlns="http://www.w3.org/2000/svg" p-id="5964" xmlns:xlink="http://www.w3.org/1999/xlink" width="200" height="200"><defs><style type="text/css"></style></defs><path d="M511.1 64.2c-246.8 0-446.9 200.1-446.9 446.9S264.3 958 511.1 958 958 757.9 958 511.1 757.8 64.2 511.1 64.2z m236.7 456.5c-5.3 16.7-11.9 32.2-19.8 46.7-7.9 14.4-16.4 27.7-26.1 40-9.4 12.3-18.9 23.4-28.5 33.2-14.6 15-29.8 29.1-45.7 41.9-15.9 12.9-31.2 24.2-45.5 33.5-14.5 9.3-27.6 16.8-39.5 22.3-11.8 5.4-21.2 8.1-27.7 8.1-7.4 0.4-16.7-2.2-27.9-7.6-11.4-5.6-23.9-12.8-37.4-22.3-13.5-9.3-27.8-20.4-42.8-33.2s-29.8-26.4-44.4-40.6c-9.5-9.1-19.8-19.8-30.7-31.8-10.9-12.1-21.3-25.3-31.1-39.8-9.6-14.4-18-30.1-24.9-46.9-6.9-16.8-10.7-34.7-11.5-53.8-0.7-19 1.3-36.9 6.1-53.5 4.7-16.6 11.8-31.5 21.4-44.7 9.5-13.1 21.3-24.3 35.1-33.2 13.9-8.9 29.7-15.2 47.2-18.9 8.6-1.8 17.4-2.1 26.3-0.8 8.6 1.3 17.3 3.5 25.8 6.5 8.3 3.2 16.4 7.1 24.1 11.9 7.8 4.7 15 9.6 22 14.8 16 12 31.4 26.5 46 43.2 12-14.9 24.9-28.5 38.4-40.5 11.7-9.9 25-18.9 39.7-26.9 14.8-8.1 30.2-11.5 46.3-10.5 22.7 1.9 41.5 7.3 56.8 16.2 15.2 8.9 27.3 20.3 36.2 33.9 8.9 13.8 15 29.3 18.4 46.7 3.3 17.3 4.4 35.2 3.3 53.6-1 18.4-4.2 35.9-9.6 52.5z" fill="#FF757E" p-id="5965"></path></svg>